<?xml version="1.0" encoding="UTF-8"?>
<svg version="1.1" xmlns="http://www.w3.org/2000/svg" width="410" height="64">
<path d="M0 0 C0.75925781 0.08507813 1.51851563 0.17015625 2.30078125 0.2578125 C1.95526781 3.94328915 0.71430961 6.38763119 -1.25 9.4453125 C-1.93509644 10.51845703 -1.93509644 10.51845703 -2.6340332 11.61328125 C-2.98554443 12.15597656 -3.33705566 12.69867188 -3.69921875 13.2578125 C-3.13847153 13.25115067 -2.5777243 13.24448883 -1.99998474 13.23762512 C3.85647832 13.17105715 9.7128332 13.12592312 15.56958008 13.09301758 C17.75289275 13.07796695 19.93617536 13.05752176 22.11938477 13.03149414 C25.26456131 12.99494732 28.40933674 12.97804852 31.5546875 12.96484375 C32.52475235 12.94935989 33.4948172 12.93387604 34.49427795 12.91792297 C40.22429041 12.91651234 44.20780004 13.58976736 49.30078125 16.2578125 C49.73828125 18.4453125 49.73828125 18.4453125 49.30078125 21.2578125 C34.62335484 35.93523891 -0.10565454 37.90905717 -19.69921875 40.2578125 C-20.05113281 41.48371094 -20.05113281 41.48371094 -20.41015625 42.734375 C-21.96655532 46.98853245 -24.06091833 50.72154646 -26.32421875 54.6328125 C-26.95457031 55.73689453 -26.95457031 55.73689453 -27.59765625 56.86328125 C-28.62674639 58.664189 -29.66232631 60.46138568 -30.69921875 62.2578125 C-33.00921875 62.2578125 -35.31921875 62.2578125 -37.69921875 62.2578125 C-37.07587902 59.30484826 -36.13020083 56.98234458 -34.6328125 54.3671875 C-34.22998047 53.65820312 -33.82714844 52.94921875 -33.41210938 52.21875 C-32.99123047 51.48914062 -32.57035156 50.75953125 -32.13671875 50.0078125 C-31.49959961 48.89019531 -31.49959961 48.89019531 -30.84960938 47.75 C-29.80375833 45.91682289 -28.75205683 44.08698573 -27.69921875 42.2578125 C-31.32921875 42.2578125 -34.95921875 42.2578125 -38.69921875 42.2578125 C-39.02921875 43.9078125 -39.35921875 45.5578125 -39.69921875 47.2578125 C-38.37921875 47.5878125 -37.05921875 47.9178125 -35.69921875 48.2578125 C-37.57421875 52.1328125 -37.57421875 52.1328125 -38.69921875 53.2578125 C-40.70790475 53.36692379 -42.72047067 53.40472851 -44.73208618 53.41603088 C-46.04846762 53.42582002 -47.36484905 53.43560915 -48.72112083 53.44569492 C-50.19770648 53.45160441 -51.67429252 53.45741418 -53.15087891 53.46313477 C-54.70003328 53.47271411 -56.24918506 53.48272151 -57.79833412 53.49312496 C-62.04971793 53.52036408 -66.30111291 53.54130588 -70.55253696 53.56112289 C-75.07099378 53.58315517 -79.58941796 53.61062414 -84.10784912 53.6373291 C-92.83226558 53.68790366 -101.5567026 53.73276909 -110.28116083 53.77546465 C-117.28667466 53.8098402 -124.29217355 53.8464624 -131.29766846 53.88449097 C-192.76513791 54.21717824 -254.23079817 54.40880439 -315.69921875 54.2578125 C-315.69921875 53.2678125 -315.69921875 52.2778125 -315.69921875 51.2578125 C-311.57958105 49.96537714 -308.03090192 48.99528625 -303.69921875 49.2578125 C-303.69921875 48.5978125 -303.69921875 47.9378125 -303.69921875 47.2578125 C-304.35921875 47.2578125 -305.01921875 47.2578125 -305.69921875 47.2578125 C-304.91130556 43.09042709 -304.11821139 38.92404353 -303.32421875 34.7578125 C-303.1025 33.58476563 -302.88078125 32.41171875 -302.65234375 31.203125 C-301.4996468 25.16841744 -300.27232325 19.19738462 -298.69921875 13.2578125 C-294.73921875 13.2578125 -290.77921875 13.2578125 -286.69921875 13.2578125 C-287.57421875 21.8828125 -287.57421875 21.8828125 -288.69921875 25.2578125 C-273.35421875 24.7628125 -273.35421875 24.7628125 -257.69921875 24.2578125 C-256.21421875 18.8128125 -256.21421875 18.8128125 -254.69921875 13.2578125 C-250.73921875 13.2578125 -246.77921875 13.2578125 -242.69921875 13.2578125 C-243.38871445 20.73131189 -244.74821866 27.97326583 -246.26171875 35.3203125 C-246.61266602 37.04797852 -246.61266602 37.04797852 -246.97070312 38.81054688 C-247.54334737 41.62702162 -248.12079238 44.44251956 -248.69921875 47.2578125 C-244.73921875 47.5878125 -240.77921875 47.9178125 -236.69921875 48.2578125 C-236.76109375 47.3503125 -236.82296875 46.4428125 -236.88671875 45.5078125 C-236.69921875 41.2578125 -236.69921875 41.2578125 -233.69921875 29.2578125 C-224.12921875 29.2578125 -214.55921875 29.2578125 -204.69921875 29.2578125 C-203.4078909 33.13179605 -204.28808303 36.07770036 -205.13671875 39.9453125 C-205.35811523 40.9981543 -205.35811523 40.9981543 -205.58398438 42.07226562 C-205.94881195 43.80225444 -206.32310564 45.53024213 -206.69921875 47.2578125 C-205.04921875 47.5878125 -203.39921875 47.9178125 -201.69921875 48.2578125 C-201.62574219 46.95457031 -201.62574219 46.95457031 -201.55078125 45.625 C-201.47601563 44.47257812 -201.40125 43.32015625 -201.32421875 42.1328125 C-201.21980469 40.42738281 -201.21980469 40.42738281 -201.11328125 38.6875 C-200.70477999 35.30387634 -199.88954306 32.44168809 -198.69921875 29.2578125 C-196.71921875 29.2578125 -194.73921875 29.2578125 -192.69921875 29.2578125 C-191.1520604 33.97502259 -192.5190332 37.53707031 -193.69921875 42.2578125 C-188.74921875 42.2578125 -183.79921875 42.2578125 -178.69921875 42.2578125 C-178.69921875 39.9478125 -178.69921875 37.6378125 -178.69921875 35.2578125 C-177.69921875 31.8203125 -177.69921875 31.8203125 -176.69921875 29.2578125 C-175.0330997 29.2150915 -173.3653899 29.21717418 -171.69921875 29.2578125 C-171.36921875 29.5878125 -171.03921875 29.9178125 -170.69921875 30.2578125 C-170.76399208 32.17745844 -170.90158535 34.09484783 -171.07421875 36.0078125 C-171.16445312 37.05453125 -171.2546875 38.10125 -171.34765625 39.1796875 C-171.66074847 41.92098379 -172.11059125 44.56409343 -172.69921875 47.2578125 C-171.37921875 47.2578125 -170.05921875 47.2578125 -168.69921875 47.2578125 C-168.59609375 45.9584375 -168.49296875 44.6590625 -168.38671875 43.3203125 C-167.97238803 38.09974548 -166.48296134 34.60904028 -164.69921875 29.2578125 C-155.45921875 29.2578125 -146.21921875 29.2578125 -136.69921875 29.2578125 C-136.36921875 30.2478125 -136.03921875 31.2378125 -135.69921875 32.2578125 C-136.15941406 32.86109375 -136.61960938 33.464375 -137.09375 34.0859375 C-139.10787751 36.81064527 -139.18718136 38.65558436 -139.38671875 42.0078125 C-139.54140625 44.6065625 -139.54140625 44.6065625 -139.69921875 47.2578125 C-134.74921875 47.2578125 -129.79921875 47.2578125 -124.69921875 47.2578125 C-124.03921875 43.2978125 -123.37921875 39.3378125 -122.69921875 35.2578125 C-125.66921875 35.2578125 -128.63921875 35.2578125 -131.69921875 35.2578125 C-132.69921875 31.2578125 -132.69921875 31.2578125 -131.69921875 29.2578125 C-122.45921875 29.2578125 -113.21921875 29.2578125 -103.69921875 29.2578125 C-103.36921875 29.9178125 -103.03921875 30.5778125 -102.69921875 31.2578125 C-103.35921875 32.5778125 -104.01921875 33.8978125 -104.69921875 35.2578125 C-108.32921875 35.2578125 -111.95921875 35.2578125 -115.69921875 35.2578125 C-115.84359375 36.6809375 -115.98796875 38.1040625 -116.13671875 39.5703125 C-116.42062749 42.36884154 -116.80234735 44.5671983 -117.69921875 47.2578125 C-112.74921875 47.2578125 -107.79921875 47.2578125 -102.69921875 47.2578125 C-102.51359375 44.7209375 -102.51359375 44.7209375 -102.32421875 42.1328125 C-101.40707994 31.96567369 -101.40707994 31.96567369 -98.69921875 29.2578125 C-97.12992116 29.16047417 -95.55666506 29.12576909 -93.984375 29.1171875 C-83.59430758 28.95167299 -74.00175402 28.56784201 -64.06933594 25.41381836 C-56.49769454 23.05501241 -48.78951773 21.55958944 -41.01171875 20.0703125 C-39.729021 19.82063721 -38.44632324 19.57096191 -37.12475586 19.3137207 C-28.34466211 17.64654312 -19.56580228 16.35242321 -10.69921875 15.2578125 C-10.39669189 14.32050293 -10.09416504 13.38319336 -9.7824707 12.41748047 C-8.75446229 9.41894882 -7.58620205 7.04638264 -5.88671875 4.3828125 C-5.40589844 3.60164062 -4.92507813 2.82046875 -4.4296875 2.015625 C-2.69921875 0.2578125 -2.69921875 0.2578125 0 0 Z M14.36108398 17.22167969 C1.76187397 16.6009525 1.76187397 16.6009525 -9.62890625 20.71044922 C-12.55438141 24.20186451 -15.69921875 29.5592031 -15.69921875 34.2578125 C0.76007397 33.91620454 21.39405213 30.52896525 35.30078125 21.2578125 C34.80578125 19.7728125 34.80578125 19.7728125 34.30078125 18.2578125 C33.16640625 18.0928125 32.03203125 17.9278125 30.86328125 17.7578125 C30.22519531 17.665 29.58710938 17.5721875 28.9296875 17.4765625 C25.91727548 17.22590117 22.95156067 17.21312077 19.92993164 17.23925781 C18.07368607 17.25235788 16.21723558 17.24449427 14.36108398 17.22167969 Z M-26.2578125 21.24609375 C-28.16916992 21.56416992 -28.16916992 21.56416992 -30.11914062 21.88867188 C-30.78099365 22.00106201 -31.44284668 22.11345215 -32.12475586 22.22924805 C-34.0985373 22.56384005 -36.07367517 22.89039866 -38.04882812 23.21679688 C-46.65946647 24.66269354 -55.17862289 26.35488218 -63.69921875 28.2578125 C-62.79030884 28.70048462 -62.79030884 28.70048462 -61.86303711 29.15209961 C-58.20327211 31.02224241 -54.86576111 33.41621741 -51.453125 35.69921875 C-48.77601027 37.21435177 -46.72559646 37.85685865 -43.69921875 38.2578125 C-43.03921875 35.6178125 -42.37921875 32.9778125 -41.69921875 30.2578125 C-40.04921875 30.2578125 -38.39921875 30.2578125 -36.69921875 30.2578125 C-37.02921875 32.5678125 -37.35921875 34.8778125 -37.69921875 37.2578125 C-32.77745518 37.67948045 -28.46008008 37.66106745 -23.69921875 36.2578125 C-19.35246216 31.61915692 -16.7113353 26.29416216 -14.69921875 20.2578125 C-18.66824563 20.14051735 -22.34423475 20.59341648 -26.2578125 21.24609375 Z M-68.69921875 29.2578125 C-70.63316876 32.15873752 -71.00053816 33.15455987 -71.32421875 36.4453125 C-71.44796875 37.7034375 -71.57171875 38.9615625 -71.69921875 40.2578125 C-70.04921875 40.2578125 -68.39921875 40.2578125 -66.69921875 40.2578125 C-65.70921875 36.6278125 -64.71921875 32.9978125 -63.69921875 29.2578125 C-65.34921875 29.2578125 -66.99921875 29.2578125 -68.69921875 29.2578125 Z M-290.69921875 35.2578125 C-292.18421875 41.6928125 -292.18421875 41.6928125 -293.69921875 48.2578125 C-282.80921875 48.2578125 -271.91921875 48.2578125 -260.69921875 48.2578125 C-260.20421875 41.8228125 -260.20421875 41.8228125 -259.69921875 35.2578125 C-269.92921875 35.2578125 -280.15921875 35.2578125 -290.69921875 35.2578125 Z M-228.69921875 35.2578125 C-229.02921875 37.5678125 -229.35921875 39.8778125 -229.69921875 42.2578125 C-224.08921875 42.2578125 -218.47921875 42.2578125 -212.69921875 42.2578125 C-212.36921875 39.9478125 -212.03921875 37.6378125 -211.69921875 35.2578125 C-217.30921875 35.2578125 -222.91921875 35.2578125 -228.69921875 35.2578125 Z M-94.69921875 35.2578125 C-95.02921875 37.5678125 -95.35921875 39.8778125 -95.69921875 42.2578125 C-92.03616641 43.00707321 -89.27566723 43.4958139 -85.69921875 42.2578125 C-87.01921875 41.5978125 -88.33921875 40.9378125 -89.69921875 40.2578125 C-89.36921875 38.6078125 -89.03921875 36.9578125 -88.69921875 35.2578125 C-90.67921875 35.2578125 -92.65921875 35.2578125 -94.69921875 35.2578125 Z M-87.69921875 35.2578125 C-87.36921875 36.2478125 -87.03921875 37.2378125 -86.69921875 38.2578125 C-83.9904254 39.61220918 -81.68988607 39.32282701 -78.69921875 39.2578125 C-78.36921875 37.9378125 -78.03921875 36.6178125 -77.69921875 35.2578125 C-80.99921875 35.2578125 -84.29921875 35.2578125 -87.69921875 35.2578125 Z M-59.69921875 37.2578125 C-59.69921875 37.9178125 -59.69921875 38.5778125 -59.69921875 39.2578125 C-59.03921875 38.9278125 -58.37921875 38.5978125 -57.69921875 38.2578125 C-58.35921875 37.9278125 -59.01921875 37.5978125 -59.69921875 37.2578125 Z M-61.69921875 44.2578125 C-61.69921875 45.2478125 -61.69921875 46.2378125 -61.69921875 47.2578125 C-56.41921875 47.2578125 -51.13921875 47.2578125 -45.69921875 47.2578125 C-49.16706547 42.93638658 -49.16706547 42.93638658 -53.13671875 42.9453125 C-56.07761972 43.20328627 -58.83421165 43.56326532 -61.69921875 44.2578125 Z M-72.69921875 44.2578125 C-73.02921875 45.2478125 -73.35921875 46.2378125 -73.69921875 47.2578125 C-71.71921875 47.2578125 -69.73921875 47.2578125 -67.69921875 47.2578125 C-67.69921875 46.2678125 -67.69921875 45.2778125 -67.69921875 44.2578125 C-69.34921875 44.2578125 -70.99921875 44.2578125 -72.69921875 44.2578125 Z " fill="#4E6291" transform="translate(315.69921875,0.7421875)"/>
<path d="M0 0 C0.75925781 0.08507813 1.51851562 0.17015625 2.30078125 0.2578125 C1.95526781 3.94328915 0.71430961 6.38763119 -1.25 9.4453125 C-1.93509644 10.51845703 -1.93509644 10.51845703 -2.6340332 11.61328125 C-2.98554443 12.15597656 -3.33705566 12.69867188 -3.69921875 13.2578125 C-3.13847153 13.25115067 -2.5777243 13.24448883 -1.99998474 13.23762512 C3.85647832 13.17105715 9.7128332 13.12592312 15.56958008 13.09301758 C17.75289275 13.07796695 19.93617536 13.05752176 22.11938477 13.03149414 C25.26456131 12.99494732 28.40933674 12.97804852 31.5546875 12.96484375 C32.52475235 12.94935989 33.4948172 12.93387604 34.49427795 12.91792297 C40.22429041 12.91651234 44.20780004 13.58976736 49.30078125 16.2578125 C49.73828125 18.4453125 49.73828125 18.4453125 49.30078125 21.2578125 C34.62335484 35.93523891 -0.10565454 37.90905717 -19.69921875 40.2578125 C-19.93382812 41.07507812 -20.1684375 41.89234375 -20.41015625 42.734375 C-21.96655532 46.98853245 -24.06091833 50.72154646 -26.32421875 54.6328125 C-26.95457031 55.73689453 -26.95457031 55.73689453 -27.59765625 56.86328125 C-28.62674639 58.664189 -29.66232631 60.46138568 -30.69921875 62.2578125 C-33.00921875 62.2578125 -35.31921875 62.2578125 -37.69921875 62.2578125 C-37.07587902 59.30484826 -36.13020083 56.98234458 -34.6328125 54.3671875 C-34.22998047 53.65820312 -33.82714844 52.94921875 -33.41210938 52.21875 C-32.99123047 51.48914062 -32.57035156 50.75953125 -32.13671875 50.0078125 C-31.49959961 48.89019531 -31.49959961 48.89019531 -30.84960938 47.75 C-29.80375833 45.91682289 -28.75205683 44.08698573 -27.69921875 42.2578125 C-31.32921875 42.2578125 -34.95921875 42.2578125 -38.69921875 42.2578125 C-39.02921875 43.9078125 -39.35921875 45.5578125 -39.69921875 47.2578125 C-38.37921875 47.5878125 -37.05921875 47.9178125 -35.69921875 48.2578125 C-36.69921875 50.2578125 -36.69921875 50.2578125 -39.69921875 52.2578125 C-42.45781994 52.50390816 -42.45781994 52.50390816 -45.86845398 52.49832153 C-47.80568832 52.50244553 -47.80568832 52.50244553 -49.78205872 52.50665283 C-51.216279 52.4995745 -52.65049835 52.49230488 -54.0847168 52.48486328 C-55.59252922 52.48429923 -57.10034219 52.4846156 -58.6081543 52.48574829 C-62.70500137 52.48632306 -66.80173178 52.47454866 -70.8985517 52.46060038 C-75.17868445 52.44811373 -79.45881975 52.44692415 -83.7389679 52.44454956 C-91.84560875 52.43832871 -99.95219578 52.42190971 -108.05881292 52.40185058 C-117.28723623 52.3795104 -126.51566208 52.36850289 -135.7441057 52.35845971 C-154.72917392 52.33754401 -173.71419201 52.30235628 -192.69921875 52.2578125 C-186.17133125 47.9058875 -176.4796125 49.09351439 -168.84545898 49.05249023 C-167.69322342 49.04259064 -166.54098785 49.03269104 -165.35383606 49.02249146 C-161.57184861 48.99108065 -157.78984862 48.96620026 -154.0078125 48.94140625 C-151.37508328 48.92081907 -148.74235723 48.89982215 -146.1096344 48.87843323 C-139.90508083 48.82871308 -133.70050258 48.78369842 -127.49590117 48.74041086 C-120.42687409 48.69086062 -113.35789118 48.63600903 -106.28890693 48.58073127 C-91.75905275 48.46722909 -77.2291546 48.36032212 -62.69921875 48.2578125 C-62.36921875 47.5978125 -62.03921875 46.9378125 -61.69921875 46.2578125 C-57.07921875 46.2578125 -52.45921875 46.2578125 -47.69921875 46.2578125 C-49.50689745 44.02649383 -49.50689745 44.02649383 -52.03759766 44.03076172 C-53.46724854 44.04647217 -53.46724854 44.04647217 -54.92578125 44.0625 C-55.95703125 44.06894531 -56.98828125 44.07539062 -58.05078125 44.08203125 C-59.67113281 44.10716797 -59.67113281 44.10716797 -61.32421875 44.1328125 C-62.4121875 44.14183594 -63.50015625 44.15085938 -64.62109375 44.16015625 C-67.31402027 44.18377841 -70.0065113 44.21671694 -72.69921875 44.2578125 C-73.19421875 45.2478125 -73.19421875 45.2478125 -73.69921875 46.2578125 C-73.69921875 45.2678125 -73.69921875 44.2778125 -73.69921875 43.2578125 C-74.91158203 43.31001953 -74.91158203 43.31001953 -76.1484375 43.36328125 C-77.21707031 43.39035156 -78.28570312 43.41742188 -79.38671875 43.4453125 C-80.97033203 43.49751953 -80.97033203 43.49751953 -82.5859375 43.55078125 C-86.05344643 43.22447865 -87.88354323 42.24811375 -90.69921875 40.2578125 C-90.32421875 38.3203125 -90.32421875 38.3203125 -89.69921875 36.2578125 C-89.03921875 35.9278125 -88.37921875 35.5978125 -87.69921875 35.2578125 C-87.34859375 35.7528125 -86.99796875 36.2478125 -86.63671875 36.7578125 C-83.75547586 38.98845216 -81.22912849 38.45761871 -77.69921875 38.2578125 C-77.69921875 38.9178125 -77.69921875 39.5778125 -77.69921875 40.2578125 C-74.06921875 40.2578125 -70.43921875 40.2578125 -66.69921875 40.2578125 C-66.23515625 38.0921875 -66.23515625 38.0921875 -65.76171875 35.8828125 C-65.24438228 33.46857564 -64.80436641 31.46810783 -63.69921875 29.2578125 C-67.62997519 29.83233996 -67.62997519 29.83233996 -70.69921875 32.2578125 C-70.69921875 31.2678125 -70.69921875 30.2778125 -70.69921875 29.2578125 C-72.01921875 28.9278125 -73.33921875 28.5978125 -74.69921875 28.2578125 C-63.6112483 24.82038956 -52.40421098 22.27211732 -41.01171875 20.0703125 C-39.09057251 19.69592041 -39.09057251 19.69592041 -37.13061523 19.31396484 C-28.34824683 17.64835293 -19.56776874 16.35266598 -10.69921875 15.2578125 C-10.24542847 13.85184814 -10.24542847 13.85184814 -9.7824707 12.41748047 C-8.75446229 9.41894882 -7.58620205 7.04638264 -5.88671875 4.3828125 C-5.40589844 3.60164062 -4.92507813 2.82046875 -4.4296875 2.015625 C-2.69921875 0.2578125 -2.69921875 0.2578125 0 0 Z M14.36108398 17.22167969 C1.76187397 16.6009525 1.76187397 16.6009525 -9.62890625 20.71044922 C-12.55438141 24.20186451 -15.69921875 29.5592031 -15.69921875 34.2578125 C0.76007397 33.91620454 21.39405213 30.52896525 35.30078125 21.2578125 C34.80578125 19.7728125 34.80578125 19.7728125 34.30078125 18.2578125 C33.16640625 18.0928125 32.03203125 17.9278125 30.86328125 17.7578125 C30.22519531 17.665 29.58710938 17.5721875 28.9296875 17.4765625 C25.91727548 17.22590117 22.95156067 17.21312077 19.92993164 17.23925781 C18.07368607 17.25235788 16.21723558 17.24449427 14.36108398 17.22167969 Z M-26.2578125 21.24609375 C-28.16916992 21.56416992 -28.16916992 21.56416992 -30.11914062 21.88867188 C-30.78099365 22.00106201 -31.44284668 22.11345215 -32.12475586 22.22924805 C-34.0985373 22.56384005 -36.07367517 22.89039866 -38.04882812 23.21679688 C-46.65946647 24.66269354 -55.17862289 26.35488218 -63.69921875 28.2578125 C-62.79030884 28.70048462 -62.79030884 28.70048462 -61.86303711 29.15209961 C-58.20327211 31.02224241 -54.86576111 33.41621741 -51.453125 35.69921875 C-48.77601027 37.21435177 -46.72559646 37.85685865 -43.69921875 38.2578125 C-43.03921875 35.6178125 -42.37921875 32.9778125 -41.69921875 30.2578125 C-40.04921875 30.2578125 -38.39921875 30.2578125 -36.69921875 30.2578125 C-37.02921875 32.5678125 -37.35921875 34.8778125 -37.69921875 37.2578125 C-32.77745518 37.67948045 -28.46008008 37.66106745 -23.69921875 36.2578125 C-19.35246216 31.61915692 -16.7113353 26.29416216 -14.69921875 20.2578125 C-18.66824563 20.14051735 -22.34423475 20.59341648 -26.2578125 21.24609375 Z M-59.69921875 37.2578125 C-59.69921875 37.9178125 -59.69921875 38.5778125 -59.69921875 39.2578125 C-59.03921875 38.9278125 -58.37921875 38.5978125 -57.69921875 38.2578125 C-58.35921875 37.9278125 -59.01921875 37.5978125 -59.69921875 37.2578125 Z " fill="#C77F81" transform="translate(315.69921875,0.7421875)"/>
<path d="M0 0 C1.98 0 3.96 0 6 0 C7.54715835 4.71721009 6.18018555 8.27925781 5 13 C9.95 13 14.9 13 20 13 C20 10.69 20 8.38 20 6 C21 2.5625 21 2.5625 22 0 C23.66611905 -0.042721 25.33382885 -0.04063832 27 0 C27.33 0.33 27.66 0.66 28 1 C27.93522667 2.91964594 27.7976334 4.83703533 27.625 6.75 C27.53476563 7.79671875 27.44453125 8.8434375 27.3515625 9.921875 C27.03847028 12.66317129 26.5886275 15.30628093 26 18 C27.32 18 28.64 18 30 18 C30.1546875 16.0509375 30.1546875 16.0509375 30.3125 14.0625 C30.72683072 8.84193298 32.21625741 5.35122778 34 0 C43.24 0 52.48 0 62 0 C62.33 0.99 62.66 1.98 63 3 C62.53980469 3.60328125 62.07960937 4.2065625 61.60546875 4.828125 C59.59134124 7.55283277 59.51203739 9.39777186 59.3125 12.75 C59.1578125 15.34875 59.1578125 15.34875 59 18 C63.95 18 68.9 18 74 18 C74.66 14.04 75.32 10.08 76 6 C73.03 6 70.06 6 67 6 C66 2 66 2 67 0 C76.24 0 85.48 0 95 0 C95.33 0.66 95.66 1.32 96 2 C95.34 3.32 94.68 4.64 94 6 C90.37 6 86.74 6 83 6 C82.855625 7.423125 82.71125 8.84625 82.5625 10.3125 C82.27859126 13.11102904 81.8968714 15.3093858 81 18 C85.95 18 90.9 18 96 18 C96.12375 16.30875 96.2475 14.6175 96.375 12.875 C97.29213881 2.70786119 97.29213881 2.70786119 100 0 C102.07262076 -0.08767112 104.14820294 -0.10695873 106.22265625 -0.09765625 C107.48271484 -0.09443359 108.74277344 -0.09121094 110.04101562 -0.08789062 C111.38151109 -0.07953403 112.72200588 -0.07106907 114.0625 -0.0625 C115.40689942 -0.0574866 116.7513006 -0.05292342 118.09570312 -0.04882812 C121.39717941 -0.03699488 124.69856803 -0.02050971 128 0 C128.125 7.625 128.125 7.625 127 11 C125.02 11 123.04 11 121 11 C121 9.35 121 7.7 121 6 C115.39 6 109.78 6 104 6 C103.67 8.31 103.34 10.62 103 13 C113.89 13.495 113.89 13.495 125 14 C125 15.32 125 16.64 125 18 C126.98 18 128.96 18 131 18 C131 17.01 131 16.02 131 15 C130.01 14.67 129.02 14.34 128 14 C130.97 14 133.94 14 137 14 C136.67 15.65 136.34 17.3 136 19 C133.01781178 19.85887368 130.35093556 20.13213527 127.25166321 20.15148926 C125.82410454 20.16400475 125.82410454 20.16400475 124.3677063 20.17677307 C123.33024261 20.18095749 122.29277893 20.18514191 121.22387695 20.18945312 C119.57682518 20.20189308 119.57682518 20.20189308 117.89649963 20.21458435 C115.51095839 20.23198408 113.12540005 20.24715111 110.73983192 20.26036072 C106.96063945 20.28140391 103.18153182 20.3084285 99.40238953 20.33703613 C91.37245819 20.39673634 83.34248934 20.44887723 75.3125 20.5 C66.02392371 20.55922832 56.73539206 20.62174053 47.44688988 20.69187927 C43.73066412 20.71835894 40.01443403 20.73923476 36.298172 20.7598877 C34.00647791 20.77650223 31.71478568 20.79337507 29.4230957 20.81054688 C28.39575317 20.81473129 27.36841064 20.81891571 26.30993652 20.82322693 C20.46570301 20.87371569 14.79760618 21.25247955 9 22 C28.50574826 22.04668413 48.01148521 22.08197122 67.51727772 22.10362434 C76.57379331 22.1139447 85.63027424 22.1280195 94.68676758 22.15087891 C102.5787757 22.17078958 110.4707587 22.18371091 118.36279124 22.18817699 C122.5430329 22.19078831 126.72320272 22.19694176 130.9034214 22.21146011 C134.83579458 22.22500737 138.76806614 22.22922845 142.70046043 22.22621536 C144.14566983 22.22676681 145.59088252 22.23076127 147.03607178 22.23841095 C149.00557514 22.24832694 150.97513269 22.24478535 152.94465637 22.24050903 C154.04804257 22.24235262 155.15142878 22.24419621 156.28825092 22.24609566 C159.22086851 22.19741979 159.22086851 22.19741979 162 20 C161.34 21.32 160.68 22.64 160 24 C135.35429227 24.204909 110.7084631 24.39106821 86.0625 24.5625 C85.14791299 24.56888284 84.23332598 24.57526568 83.29102421 24.58184195 C32.64780713 24.93417203 -17.98265109 25.0983264 -68.625 24.5625 C-69.8375584 24.54968616 -71.05011681 24.53687233 -72.2994194 24.5236702 C-86.53324589 24.37131976 -100.76674701 24.1988021 -115 24 C-115 23.67 -115 23.34 -115 23 C-114.17119166 22.99503478 -114.17119166 22.99503478 -113.32563972 22.98996925 C-99.84454376 22.90854033 -86.36355903 22.8162618 -72.88261604 22.71247292 C-66.36317177 22.66260446 -59.84374297 22.6162736 -53.32421875 22.578125 C-47.0282675 22.54115284 -40.73244867 22.49476058 -34.43661118 22.44193649 C-32.03898322 22.42345587 -29.64132694 22.40832475 -27.24365616 22.39665604 C-23.876005 22.37968506 -20.50865293 22.35062396 -17.14111328 22.31884766 C-15.66619667 22.31560738 -15.66619667 22.31560738 -14.16148376 22.31230164 C-7.90147367 22.23722987 -2.0909525 21.44586591 4 20 C1.69 19.34 -0.62 18.68 -3 18 C-2.22095672 5.33029613 -2.22095672 5.33029613 0 0 Z " fill="#704147" transform="translate(117,30)"/>
<path d="M0 0 C9.57 0 19.14 0 29 0 C30.29132785 3.87398355 29.41113572 6.81988786 28.5625 10.6875 C28.41490234 11.38939453 28.26730469 12.09128906 28.11523438 12.81445312 C27.7504068 14.54444194 27.37611311 16.27242963 27 18 C33.93 18.495 33.93 18.495 41 19 C38.72742516 21.27257484 37.94668159 21.37445778 34.8671875 21.8515625 C34.06152344 21.98046875 33.25585938 22.109375 32.42578125 22.2421875 C31.58402344 22.36851563 30.74226563 22.49484375 29.875 22.625 C29.02550781 22.7590625 28.17601563 22.893125 27.30078125 23.03125 C25.20165356 23.36144986 23.10096089 23.68167259 21 24 C21 24.33 21 24.66 21 25 C-12.99 25 -46.98 25 -82 25 C-82 24.01 -82 23.02 -82 22 C-77.8803623 20.70756464 -74.33168317 19.73747375 -70 20 C-70 19.34 -70 18.68 -70 18 C-62.70834105 17.97441625 -55.41669389 17.95703608 -48.125 17.94506836 C-45.6500607 17.94007336 -43.17512431 17.93327509 -40.70019531 17.92456055 C-14.30742646 17.83402845 -14.30742646 17.83402845 -3 19 C-3.061875 18.0925 -3.12375 17.185 -3.1875 16.25 C-3 12 -3 12 0 0 Z M5 6 C4.67 8.31 4.34 10.62 4 13 C9.61 13 15.22 13 21 13 C21.33 10.69 21.66 8.38 22 6 C16.39 6 10.78 6 5 6 Z " fill="#CCA3A7" transform="translate(82,30)"/>
<path d="M0 0 C1.32 0 2.64 0 4 0 C2.43256542 4.31044511 0.29213067 8.04467696 -2 12 C-1.43925278 11.99333817 -0.87850555 11.98667633 -0.30076599 11.97981262 C5.55569707 11.91324465 11.41205195 11.86811062 17.26879883 11.83520508 C19.4521115 11.82015445 21.63539411 11.79970926 23.81860352 11.77368164 C26.96378006 11.73713482 30.10855549 11.72023602 33.25390625 11.70703125 C34.2239711 11.69154739 35.19403595 11.67606354 36.1934967 11.66011047 C41.92350916 11.65869984 45.90701879 12.33195486 51 15 C51.4375 17.1875 51.4375 17.1875 51 20 C38.26118424 32.73881576 4.30304441 37.7222614 -13.0625 38.25 C-16 38 -16 38 -19 36 C-19 34.68 -19 33.36 -19 32 C-18.34 32 -17.68 32 -17 32 C-16.34 30.35 -15.68 28.7 -15 27 C-14.34 27 -13.68 27 -13 27 C-12.81824219 26.40832031 -12.63648438 25.81664063 -12.44921875 25.20703125 C-11.03163961 20.75074401 -9.50736598 16.96999613 -7 13 C-6.525625 11.865625 -6.05125 10.73125 -5.5625 9.5625 C-4.00180771 6.00412159 -2.43771282 3.0286735 0 0 Z M16.06030273 15.96386719 C3.46109272 15.34314 3.46109272 15.34314 -7.9296875 19.45263672 C-10.85516266 22.94405201 -14 28.3013906 -14 33 C2.45929272 32.65839204 23.09327088 29.27115275 37 20 C36.505 18.515 36.505 18.515 36 17 C34.865625 16.835 33.73125 16.67 32.5625 16.5 C31.92441406 16.4071875 31.28632813 16.314375 30.62890625 16.21875 C27.61649423 15.96808867 24.65077942 15.95530827 21.62915039 15.98144531 C19.77290482 15.99454538 17.91645433 15.98668177 16.06030273 15.96386719 Z " fill="#B34B58" transform="translate(314,2)"/>
<path d="M0 0 C1.25159912 0.00523682 2.50319824 0.01047363 3.79272461 0.01586914 C4.78942421 0.01799156 4.78942421 0.01799156 5.80625916 0.02015686 C7.93590735 0.02577021 10.06545175 0.03832485 12.19506836 0.05102539 C13.63582205 0.05603868 15.07657739 0.06060188 16.51733398 0.06469727 C20.05577938 0.07574394 23.59416375 0.09301747 27.13256836 0.11352539 C27.62756836 1.10352539 27.62756836 1.10352539 28.13256836 2.11352539 C27.24194336 4.24243164 27.24194336 4.24243164 25.88256836 6.67602539 C25.44428711 7.48168945 25.00600586 8.28735352 24.55444336 9.11743164 C23.13256836 11.11352539 23.13256836 11.11352539 20.13256836 12.11352539 C19.80256836 14.42352539 19.47256836 16.73352539 19.13256836 19.11352539 C16.49256836 19.11352539 13.85256836 19.11352539 11.13256836 19.11352539 C11.13256836 18.12352539 11.13256836 17.13352539 11.13256836 16.11352539 C5.52256836 16.11352539 -0.08743164 16.11352539 -5.86743164 16.11352539 C-6.19743164 17.10352539 -6.52743164 18.09352539 -6.86743164 19.11352539 C-9.17743164 19.11352539 -11.48743164 19.11352539 -13.86743164 19.11352539 C-12.96699054 14.80166182 -10.76664233 11.55455301 -8.36743164 7.92602539 C-7.95106445 7.2847168 -7.53469727 6.6434082 -7.10571289 5.98266602 C-3.28641245 0.13011339 -3.28641245 0.13011339 0 0 Z M0.13256836 7.11352539 C0.13256836 7.44352539 0.13256836 7.77352539 0.13256836 8.11352539 C5.74256836 8.11352539 11.35256836 8.11352539 17.13256836 8.11352539 C17.13256836 7.78352539 17.13256836 7.45352539 17.13256836 7.11352539 C11.52256836 7.11352539 5.91256836 7.11352539 0.13256836 7.11352539 Z " fill="#E0757B" transform="translate(309.867431640625,39.886474609375)"/>
<path d="M0 0 C9.9 0 19.8 0 30 0 C30 1.32 30 2.64 30 4 C27.5 5.75 27.5 5.75 25 7 C25.495 8.98 25.495 8.98 26 11 C24.35 11.99 22.7 12.98 21 14 C21.185625 14.639375 21.37125 15.27875 21.5625 15.9375 C21.706875 16.618125 21.85125 17.29875 22 18 C21 19 21 19 18.13256836 19.11352539 C16.88096924 19.10828857 15.62937012 19.10305176 14.33984375 19.09765625 C13.34314415 19.09553383 13.34314415 19.09553383 12.3263092 19.09336853 C10.19666101 19.08775518 8.06711661 19.07520054 5.9375 19.0625 C4.49674631 19.05748671 3.05599097 19.05292351 1.61523438 19.04882812 C-1.92321102 19.03778145 -5.46159539 19.02050792 -9 19 C-8.45975183 15.79932972 -7.79992308 13.24748841 -6.15234375 10.44921875 C-5.82999756 9.89322998 -5.50765137 9.33724121 -5.17553711 8.7644043 C-4.76698486 8.07902588 -4.35843262 7.39364746 -3.9375 6.6875 C-1.9884375 3.3771875 -1.9884375 3.3771875 0 0 Z " fill="#D15E6A" transform="translate(344,40)"/>
<path d="M0 0 C9.24 0 18.48 0 28 0 C28.495 1.485 28.495 1.485 29 3 C28.53722656 3.60457031 28.07445312 4.20914063 27.59765625 4.83203125 C25.58890563 7.557842 25.57614709 9.33760747 25.4375 12.6875 C25.30859375 15.63671875 25.30859375 15.63671875 25 18 C22.28598706 19.35700647 20.15153684 19.1123861 17.1171875 19.09765625 C15.95058594 19.09443359 14.78398437 19.09121094 13.58203125 19.08789062 C12.35871094 19.07951172 11.13539063 19.07113281 9.875 19.0625 C8.64394531 19.05798828 7.41289062 19.05347656 6.14453125 19.04882812 C3.09630608 19.0370133 0.04817686 19.02054028 -3 19 C-4.63150219 11.53464148 -2.54073425 7.62220276 0 0 Z " fill="#4D5B82" transform="translate(151,30)"/>
<path d="M0 0 C-0.88975958 5.40276693 -3.1151079 9.1151079 -7 13 C-9.33837891 13.22705078 -9.33837891 13.22705078 -12.2265625 13.1953125 C-13.7734375 13.18564453 -13.7734375 13.18564453 -15.3515625 13.17578125 C-16.43179687 13.15902344 -17.51203125 13.14226563 -18.625 13.125 C-19.71296875 13.11597656 -20.8009375 13.10695313 -21.921875 13.09765625 C-24.61480152 13.07403409 -27.30729255 13.04109556 -30 13 C-30.309375 13.78375 -30.61875 14.5675 -30.9375 15.375 C-32 18 -32 18 -33 20 C-35.31 20 -37.62 20 -40 20 C-41.50811647 15.47565059 -39.95800895 12.52399296 -38 8.3125 C-31.1075616 -5.40900129 -12.91721325 -1.29688539 0 0 Z M-25 6 C-25 6.33 -25 6.66 -25 7 C-20.05 7 -15.1 7 -10 7 C-10 6.67 -10 6.34 -10 6 C-14.95 6 -19.9 6 -25 6 Z " fill="#B3233D" transform="translate(410,40)"/>
<path d="M0 0 C-1 2 -1 2 -4 4 C-6.75860119 4.24609566 -6.75860119 4.24609566 -10.16923523 4.24050903 C-12.10646957 4.24463303 -12.10646957 4.24463303 -14.08283997 4.24884033 C-15.51706025 4.241762 -16.9512796 4.23449238 -18.38549805 4.22705078 C-19.89331047 4.22648673 -21.40112344 4.2268031 -22.90893555 4.22793579 C-27.00578262 4.22851056 -31.10251303 4.21673616 -35.19933295 4.20278788 C-39.4794657 4.19030123 -43.759601 4.18911165 -48.03974915 4.18673706 C-56.14639 4.18051621 -64.25297703 4.16409721 -72.35959417 4.14403808 C-81.58801748 4.1216979 -90.81644333 4.11069039 -100.04488695 4.10064721 C-119.02995517 4.07973151 -138.01497326 4.04454378 -157 4 C-150.03340255 -0.6443983 -139.30985109 0.83143511 -131.20605469 0.79467773 C-129.83354409 0.78507994 -128.46103633 0.7750688 -127.08853149 0.76467896 C-123.38638579 0.73781645 -119.6842276 0.71670336 -115.98203945 0.69667697 C-112.09796876 0.6746802 -108.21393548 0.64735434 -104.32989502 0.62062073 C-96.9802756 0.57084101 -89.630635 0.5258569 -82.28097463 0.48259836 C-73.9296746 0.4331978 -65.57841389 0.37824963 -57.22715139 0.32291877 C-44.91715388 0.24151239 -32.60714334 0.16229507 -20.29710007 0.08810806 C-18.33363546 0.07627293 -16.3701716 0.06431477 -14.40670776 0.05235291 C-13.23485931 0.04538391 -12.06301086 0.03841492 -10.85565186 0.03123474 C-9.83954205 0.02515922 -8.82343224 0.01908369 -7.77653122 0.01282406 C-5.18430318 0.00085125 -2.5922507 -0.00237135 0 0 Z " fill="#C42140" transform="translate(280,49)"/>
<path d="M0 0 C9.57 0 19.14 0 29 0 C30.29219502 3.87658507 29.41025195 6.82130601 28.5625 10.6875 C28.046875 13.100625 27.53125 15.51375 27 18 C17.1 18 7.2 18 -3 18 C-2 8 -2 8 0 0 Z M5 6 C4.67 8.31 4.34 10.62 4 13 C9.61 13 15.22 13 21 13 C21.33 10.69 21.66 8.38 22 6 C16.39 6 10.78 6 5 6 Z " fill="#4F5D7E" transform="translate(82,30)"/>
<path d="M0 0 C3.96 0 7.92 0 12 0 C11.125 8.625 11.125 8.625 10 12 C20.56 11.67 31.12 11.34 42 11 C42 11.66 42 12.32 42 13 C41.410979 13.01458252 40.82195801 13.02916504 40.21508789 13.04418945 C37.49696198 13.11953764 34.77995058 13.21590384 32.0625 13.3125 C31.13630859 13.33505859 30.21011719 13.35761719 29.25585938 13.38085938 C23.01246098 13.62183265 17.80492857 14.72048797 12 17 C10.6255185 17.50142357 9.25058841 18.0016211 7.875 18.5 C4.20169921 19.89408403 0.59926987 21.42531943 -3 23 C-3 23.66 -3 24.32 -3 25 C-1.68 24.67 -0.36 24.34 1 24 C-0.28965176 25.37562854 -1.62689293 26.70766393 -3 28 C-3.66 28 -4.32 28 -5 28 C-5 29.98 -5 31.96 -5 34 C-5.66 34 -6.32 34 -7 34 C-6.21208681 29.83261459 -5.41899264 25.66623103 -4.625 21.5 C-4.40328125 20.32695313 -4.1815625 19.15390625 -3.953125 17.9453125 C-2.80042805 11.91060494 -1.5731045 5.93957212 0 0 Z M2 22 C2.33 22.66 2.66 23.32 3 24 C2.34 23.67 1.68 23.34 1 23 C1.33 22.67 1.66 22.34 2 22 Z " fill="#808CAB" transform="translate(17,14)"/>
<path d="M0 0 C1.16781006 0.00523682 2.33562012 0.01047363 3.53881836 0.01586914 C4.79887695 0.0190918 6.05893555 0.02231445 7.35717773 0.02563477 C8.6976732 0.03399136 10.03816799 0.04245632 11.37866211 0.05102539 C12.72306153 0.05603879 14.06746271 0.06060197 15.41186523 0.06469727 C18.71334151 0.07653051 22.01473014 0.09301568 25.31616211 0.11352539 C25.44116211 7.73852539 25.44116211 7.73852539 24.31616211 11.11352539 C22.33616211 11.11352539 20.35616211 11.11352539 18.31616211 11.11352539 C18.31616211 9.46352539 18.31616211 7.81352539 18.31616211 6.11352539 C12.70616211 6.11352539 7.09616211 6.11352539 1.31616211 6.11352539 C0.98616211 8.42352539 0.65616211 10.73352539 0.31616211 13.11352539 C2.29616211 13.11352539 4.27616211 13.11352539 6.31616211 13.11352539 C6.31616211 13.77352539 6.31616211 14.43352539 6.31616211 15.11352539 C5.71288086 15.24629883 5.10959961 15.37907227 4.48803711 15.51586914 C3.68881836 15.6924707 2.88959961 15.86907227 2.06616211 16.05102539 C1.27725586 16.22504883 0.48834961 16.39907227 -0.32446289 16.57836914 C-2.45262492 17.06108139 -4.56916631 17.57515717 -6.68383789 18.11352539 C-5.47473835 0.23157949 -5.47473835 0.23157949 0 0 Z " fill="#47526F" transform="translate(219.683837890625,29.886474609375)"/>
<path d="M0 0 C1.67542976 0.28604898 3.34385343 0.61781233 5 1 C5.28454579 8.28753375 4.46555517 14.85541856 3 22 C-1.29 22 -5.58 22 -10 22 C-9.34 18.04 -8.68 14.08 -8 10 C-17.9 10 -27.8 10 -38 10 C-38 9.67 -38 9.34 -38 9 C-37.20303711 8.9906543 -36.40607422 8.98130859 -35.58496094 8.97167969 C-31.97267825 8.91798502 -28.36169179 8.83433392 -24.75 8.75 C-22.86861328 8.72873047 -22.86861328 8.72873047 -20.94921875 8.70703125 C-19.74394531 8.67480469 -18.53867187 8.64257812 -17.296875 8.609375 C-16.18666992 8.58842773 -15.07646484 8.56748047 -13.93261719 8.54589844 C-10.37023819 7.88277161 -9.3414755 6.68085648 -7 4 C-5.02379014 2.95377125 -3.0262871 1.94560065 -1 1 C-0.67 0.67 -0.34 0.34 0 0 Z " fill="#2A3F6E" transform="translate(64,26)"/>
<path d="M0 0 C2.75 -0.25 2.75 -0.25 5 0 C5.64453125 1.765625 5.64453125 1.765625 6 4 C5.07421875 5.921875 5.07421875 5.921875 3.6875 7.75 C3.01267578 8.67039062 3.01267578 8.67039062 2.32421875 9.609375 C1.88722656 10.06828125 1.45023437 10.5271875 1 11 C0.34 11 -0.32 11 -1 11 C-1.33 13.31 -1.66 15.62 -2 18 C-4.64 18 -7.28 18 -10 18 C-10 17.01 -10 16.02 -10 15 C-15.61 15 -21.22 15 -27 15 C-27.33 15.99 -27.66 16.98 -28 18 C-29.98 18 -31.96 18 -34 18 C-34 17.67 -34 17.34 -34 17 C-32.35 17 -30.7 17 -29 17 C-28.690625 16.071875 -28.690625 16.071875 -28.375 15.125 C-26.45147237 12.15227549 -24.32043345 11.96845976 -21 11 C-20.34 10.34 -19.68 9.68 -19 9 C-16.41935871 8.85502015 -13.95056116 8.81322455 -11.375 8.875 C-10.66859375 8.88402344 -9.9621875 8.89304687 -9.234375 8.90234375 C-7.48943902 8.92592397 -5.74467705 8.96179539 -4 9 C-4 8.01 -4 7.02 -4 6 C-6.7920301 6.1404983 -9.58349796 6.28715383 -12.375 6.4375 C-13.1690625 6.47681641 -13.963125 6.51613281 -14.78125 6.55664062 C-19.02601221 6.68893404 -19.02601221 6.68893404 -23 8 C-22.67 7.01 -22.34 6.02 -22 5 C-20.74703125 4.97421875 -19.4940625 4.9484375 -18.203125 4.921875 C-16.55204877 4.86558831 -14.90100845 4.8082411 -13.25 4.75 C-12.425 4.73582031 -11.6 4.72164062 -10.75 4.70703125 C-5.74308955 4.568919 -5.74308955 4.568919 -1.59375 1.96875 C-1.0678125 1.3190625 -0.541875 0.669375 0 0 Z " fill="#A1424E" transform="translate(331,41)"/>
<path d="M0 0 C1.44826172 0.03383789 1.44826172 0.03383789 2.92578125 0.06835938 C5.28551874 0.12676872 7.64190223 0.20859792 10 0.3125 C9.62890625 2.234375 9.62890625 2.234375 9 4.3125 C6.9375 5.5625 6.9375 5.5625 5 6.3125 C5.185625 6.951875 5.37125 7.59125 5.5625 8.25 C5.706875 8.930625 5.85125 9.61125 6 10.3125 C5 11.3125 5 11.3125 2.22436523 11.42602539 C1.01466064 11.42078857 -0.19504395 11.41555176 -1.44140625 11.41015625 C-2.74658203 11.40693359 -4.05175781 11.40371094 -5.39648438 11.40039062 C-6.7851569 11.39203401 -8.17382877 11.38356905 -9.5625 11.375 C-10.95507656 11.36998666 -12.34765481 11.36542347 -13.74023438 11.36132812 C-17.1601987 11.34949434 -20.58007844 11.3330088 -24 11.3125 C-17.30512431 2.31626079 -11.18738135 -0.5015033 0 0 Z " fill="#92273C" transform="translate(360,47.6875)"/>
<path d="M0 0 C1.98 0 3.96 0 6 0 C7.54715835 4.71721009 6.18018555 8.27925781 5 13 C9.95 13 14.9 13 20 13 C20 10.69 20 8.38 20 6 C21 2.5625 21 2.5625 22 0 C23.66611905 -0.042721 25.33382885 -0.04063832 27 0 C27.33 0.33 27.66 0.66 28 1 C27.93522667 2.91964594 27.7976334 4.83703533 27.625 6.75 C27.53476563 7.79671875 27.44453125 8.8434375 27.3515625 9.921875 C27.03847028 12.66317129 26.5886275 15.30628093 26 18 C25.34 17.67 24.68 17.34 24 17 C21.6670134 16.95977609 19.33293334 16.95679753 17 17 C17.33 16.34 17.66 15.68 18 15 C17.00097656 14.93941406 16.00195312 14.87882812 14.97265625 14.81640625 C13.68230469 14.73261719 12.39195312 14.64882813 11.0625 14.5625 C9.13083984 14.44068359 9.13083984 14.44068359 7.16015625 14.31640625 C4 14 4 14 3 13 C1.02 13.66 -0.96 14.32 -3 15 C-2.69163768 12.87439563 -2.37818386 10.74952935 -2.0625 8.625 C-1.88847656 7.44164062 -1.71445313 6.25828125 -1.53515625 5.0390625 C-1 2 -1 2 0 0 Z " fill="#263867" transform="translate(117,30)"/>
<path d="M0 0 C20.295 0.495 20.295 0.495 41 1 C41 1.33 41 1.66 41 2 C28.46 2.99 15.92 3.98 3 5 C32.04 5.33 61.08 5.66 91 6 C91 6.33 91 6.66 91 7 C57.01 7 23.02 7 -12 7 C-12 6.01 -12 5.02 -12 4 C-7.8803623 2.70756464 -4.33168317 1.73747375 0 2 C0 1.34 0 0.68 0 0 Z " fill="#FAE4E4" transform="translate(12,48)"/>
<path d="M0 0 C-0.53735352 1.90234375 -0.53735352 1.90234375 -2 4 C-4.54944085 4.74300083 -6.79431021 5.20633368 -9.40234375 5.5625 C-10.14816208 5.67926086 -10.89398041 5.79602173 -11.66239929 5.9163208 C-13.25896378 6.16452094 -14.8567816 6.40476487 -16.45562744 6.63781738 C-19.75940107 7.119941 -23.05659875 7.64098006 -26.35455322 8.16119385 C-27.98166232 8.41772975 -29.60906383 8.67241793 -31.23675537 8.92523193 C-37.39770737 9.88579427 -43.52178963 10.96864244 -49.625 12.25 C-50.37386475 12.40082031 -51.12272949 12.55164062 -51.89428711 12.70703125 C-55.85319276 13.54162012 -55.85319276 13.54162012 -59 16 C-59 15.01 -59 14.02 -59 13 C-60.32 12.67 -61.64 12.34 -63 12 C-51.72627459 8.50499048 -40.33518595 5.95803874 -28.75 3.75 C-28.06606171 3.61962341 -27.38212341 3.48924683 -26.67745972 3.35491943 C-8.25267227 -0.14228745 -8.25267227 -0.14228745 0 0 Z " fill="#A64152" transform="translate(304,17)"/>
<path d="M0 0 C0.515625 0.495 1.03125 0.99 1.5625 1.5 C4.80680017 3.49649241 7.26217334 3.21564385 11 3 C11 3.66 11 4.32 11 5 C13.97 5 16.94 5 20 5 C20 5.33 20 5.66 20 6 C29.57 6 39.14 6 49 6 C49 7.98 49 9.96 49 12 C49.99 12.33 50.98 12.66 52 13 C48.58934861 14.03974499 45.47735158 14.11508506 41.921875 14.09765625 C40.76171875 14.09443359 39.6015625 14.09121094 38.40625 14.08789062 C37.1996875 14.07951172 35.993125 14.07113281 34.75 14.0625 C33.52796875 14.05798828 32.3059375 14.05347656 31.046875 14.04882812 C28.03120054 14.03704815 25.01562502 14.02059853 22 14 C22.639375 13.87625 23.27875 13.7525 23.9375 13.625 C24.618125 13.41875 25.29875 13.2125 26 13 C26.33 12.34 26.66 11.68 27 11 C31.62 11 36.24 11 41 11 C39.1923213 8.76868133 39.1923213 8.76868133 36.66162109 8.77294922 C35.23197021 8.78865967 35.23197021 8.78865967 33.7734375 8.8046875 C32.7421875 8.81113281 31.7109375 8.81757812 30.6484375 8.82421875 C29.02808594 8.84935547 29.02808594 8.84935547 27.375 8.875 C26.28703125 8.88402344 25.1990625 8.89304687 24.078125 8.90234375 C21.38519848 8.92596591 18.69270745 8.95890444 16 9 C15.67 9.66 15.34 10.32 15 11 C15 10.01 15 9.02 15 8 C14.19175781 8.03480469 13.38351563 8.06960937 12.55078125 8.10546875 C11.48214844 8.13253906 10.41351563 8.15960938 9.3125 8.1875 C7.72888672 8.23970703 7.72888672 8.23970703 6.11328125 8.29296875 C2.64577232 7.96666615 0.81567552 6.99030125 -2 5 C-1.125 1.125 -1.125 1.125 0 0 Z " fill="#BC8189" transform="translate(227,36)"/>
<path d="M0 0 C0.85428589 -0.00191345 1.70857178 -0.0038269 2.58874512 -0.00579834 C4.39429011 -0.00715887 6.19984492 -0.00347164 8.00537109 0.00488281 C10.7707311 0.01558429 13.53544147 0.00498316 16.30078125 -0.0078125 C18.05468894 -0.00649088 19.80859622 -0.00392844 21.5625 0 C22.39068237 -0.00404846 23.21886475 -0.00809692 24.07214355 -0.01226807 C27.9853655 0.01973377 29.95225141 0.0462926 33.28125 2.265625 C33.59375 4.765625 33.59375 4.765625 33.28125 7.265625 C30.79465379 9.75222121 28.67641054 10.2999361 25.34375 11.390625 C24.28285156 11.74382813 23.22195313 12.09703125 22.12890625 12.4609375 C19.28125 13.265625 19.28125 13.265625 16.28125 13.265625 C16.61125 12.688125 16.94125 12.110625 17.28125 11.515625 C18.55200898 9.06678638 18.55200898 9.06678638 18.28125 5.265625 C17.29125 4.935625 16.30125 4.605625 15.28125 4.265625 C15.28125 3.605625 15.28125 2.945625 15.28125 2.265625 C6.37125 2.265625 -2.53875 2.265625 -11.71875 2.265625 C-7.81791748 -0.33493002 -4.52397315 -0.02211485 0 0 Z " fill="#C02542" transform="translate(331.71875,14.734375)"/>
<path d="M0 0 C10.23 0 20.46 0 31 0 C29.99258657 4.0296537 29.77877957 4.4349727 27 7 C26.608125 7.721875 26.21625 8.44375 25.8125 9.1875 C24 11 24 11 22.03125 11.25390625 C20.01905573 11.25036365 18.00788515 11.1316646 16 11 C16 10.34 16 9.68 16 9 C15.34 8.67 14.68 8.34 14 8 C16.31 8 18.62 8 21 8 C21 7.34 21 6.68 21 6 C15.39 5.67 9.78 5.34 4 5 C3.67 5.66 3.34 6.32 3 7 C2.67 6.01 2.34 5.02 2 4 C-0.31 6.64 -2.62 9.28 -5 12 C-5 9 -5 9 0 0 Z " fill="#C3203E" transform="translate(379,40)"/>
<path d="M0 0 C1.16781006 0.00523682 2.33562012 0.01047363 3.53881836 0.01586914 C4.79887695 0.0190918 6.05893555 0.02231445 7.35717773 0.02563477 C8.6976732 0.03399136 10.03816799 0.04245632 11.37866211 0.05102539 C12.72306153 0.05603879 14.06746271 0.06060197 15.41186523 0.06469727 C18.71334151 0.07653051 22.01473014 0.09301568 25.31616211 0.11352539 C25.64616211 1.10352539 25.97616211 2.09352539 26.31616211 3.11352539 C24.7371962 4.98182898 23.82089731 6.00872083 21.38671875 6.51416016 C20.31732056 6.53434204 20.31732056 6.53434204 19.22631836 6.55493164 C18.44192383 6.58135742 17.6575293 6.6077832 16.84936523 6.63500977 C15.62636719 6.6553125 15.62636719 6.6553125 14.37866211 6.67602539 C12.76517973 6.71062748 11.15184641 6.75332533 9.53881836 6.80493164 C8.46772827 6.82342163 8.46772827 6.82342163 7.375 6.84228516 C5.00992744 7.15387007 3.41840529 8.01426994 1.31616211 9.11352539 C0.26428711 9.27852539 -0.78758789 9.44352539 -1.87133789 9.61352539 C-2.79946289 9.77852539 -3.72758789 9.94352539 -4.68383789 10.11352539 C-5.01383789 10.77352539 -5.34383789 11.43352539 -5.68383789 12.11352539 C-5.37614082 10.30020385 -5.06254725 8.48788194 -4.74633789 6.67602539 C-4.48530273 5.16202148 -4.48530273 5.16202148 -4.21899414 3.61743164 C-3.47728259 0.14708782 -3.47728259 0.14708782 0 0 Z " fill="#9398A7" transform="translate(153.683837890625,29.886474609375)"/>
<path d="M0 0 C0.99 0 1.98 0 3 0 C3.027193 1.58323688 3.04648306 3.16661062 3.0625 4.75 C3.07410156 5.63171875 3.08570312 6.5134375 3.09765625 7.421875 C3 10 3 10 2 14 C-7.9 14 -17.8 14 -28 14 C-27.67 12.68 -27.34 11.36 -27 10 C-25.68 10 -24.36 10 -23 10 C-22.67 8.02 -22.34 6.04 -22 4 C-21.67 4 -21.34 4 -21 4 C-21 5.65 -21 7.3 -21 9 C-15.39 9 -9.78 9 -4 9 C-3.67 7.02 -3.34 5.04 -3 3 C-2.01 2.67 -1.02 2.34 0 2 C0 1.34 0 0.68 0 0 Z " fill="#404D77" transform="translate(107,34)"/>
<path d="M0 0 C1.53413344 0.00186843 3.06826748 0.00329032 4.60240173 0.00428772 C8.61198618 0.00807949 12.62153357 0.0178807 16.63110352 0.0289917 C20.73388162 0.03927818 24.8366658 0.04380075 28.93945312 0.04882812 C36.96876688 0.05950643 44.99805069 0.07654203 53.02734375 0.09765625 C53.02734375 0.42765625 53.02734375 0.75765625 53.02734375 1.09765625 C36.04759111 3.0708045 19.24859133 3.35108644 2.16656494 3.23498535 C-1.24700336 3.21409081 -4.6606042 3.20530097 -8.07421875 3.1953125 C-14.70711185 3.17356262 -21.33986643 3.14032983 -27.97265625 3.09765625 C-20.43344751 -1.92848291 -8.81435638 -0.03173391 0 0 Z " fill="#CA3149" transform="translate(150.97265625,49.90234375)"/>
<path d="M0 0 C2.42773066 0.0100554 4.85546538 0.0191767 7.28320312 0.02734375 C13.16805886 0.04914151 19.05275986 0.08241399 24.9375 0.125 C24.9375 0.455 24.9375 0.785 24.9375 1.125 C16.93242503 3.15347366 9.28310307 3.38886981 1.0546875 3.3203125 C-0.24072968 3.3174826 -1.53614685 3.31465271 -2.87081909 3.31173706 C-6.28039565 3.30417608 -9.6897962 3.28459446 -13.0993042 3.2623291 C-16.59222026 3.24170627 -20.08516534 3.23270055 -23.578125 3.22265625 C-30.40632136 3.20133973 -37.23440218 3.16729736 -44.0625 3.125 C-44.0625 2.795 -44.0625 2.465 -44.0625 2.125 C-29.38122924 -0.17271278 -14.82994636 -0.10770636 0 0 Z " fill="#E0767A" transform="translate(96.0625,49.875)"/>
<path d="M0 0 C3.96 0 7.92 0 12 0 C11.37679879 6.43974581 10.35991738 12.67572401 9 19 C8.67 19 8.34 19 8 19 C8 17.02 8 15.04 8 13 C6.68 12.67 5.36 12.34 4 12 C4.33 11.67 4.66 11.34 5 11 C2.69 11.33 0.38 11.66 -2 12 C-1.85904936 10.3745692 -1.71207913 8.74965949 -1.5625 7.125 C-1.48128906 6.22007813 -1.40007813 5.31515625 -1.31640625 4.3828125 C-1 2 -1 2 0 0 Z " fill="#465D91" transform="translate(61,14)"/>
<path d="M0 0 C0.33 0.66 0.66 1.32 1 2 C16.18 2 31.36 2 47 2 C47 2.33 47 2.66 47 3 C29.675 3.495 29.675 3.495 12 4 C19.92 4.33 27.84 4.66 36 5 C36 5.66 36 6.32 36 7 C35.29101562 6.98839844 34.58203125 6.97679687 33.8515625 6.96484375 C21.22195809 6.8578132 8.61559015 7.46498287 -4 8 C-2.87548273 5.0280615 -1.77706209 2.66559313 0 0 Z " fill="#AC4859" transform="translate(311,12)"/>
<path d="M0 0 C0 3 0 3 -2 6 C-1.22914063 5.69964844 -0.45828125 5.39929688 0.3359375 5.08984375 C1.84027344 4.51943359 1.84027344 4.51943359 3.375 3.9375 C4.37273437 3.55464844 5.37046875 3.17179687 6.3984375 2.77734375 C9 2 9 2 11 3 C4.13043397 6.84661732 -2.82536604 8.7792698 -10.4375 10.6875 C-12.2019043 11.14866211 -12.2019043 11.14866211 -14.00195312 11.61914062 C-20.347535 13.24011934 -26.47004365 14.47620671 -33 15 C-30.09907498 13.06604999 -29.10325263 12.69868059 -25.8125 12.375 C-24.554375 12.25125 -23.29625 12.1275 -22 12 C-22 11.01 -22 10.02 -22 9 C-21.40461426 8.76289307 -20.80922852 8.52578613 -20.19580078 8.28149414 C-17.50517486 7.20939451 -14.81508194 6.1359638 -12.125 5.0625 C-11.18785156 4.68931641 -10.25070312 4.31613281 -9.28515625 3.93164062 C-7.94130859 3.39506836 -7.94130859 3.39506836 -6.5703125 2.84765625 C-5.32918701 2.3527771 -5.32918701 2.3527771 -4.06298828 1.84790039 C-1.98779494 1.02457366 -1.98779494 1.02457366 0 0 Z " fill="#885259" transform="translate(350,22)"/>
<path d="M0 0 C3.96 0 7.92 0 12 0 C11.67 2.97 11.34 5.94 11 9 C9.80375 9.433125 8.6075 9.86625 7.375 10.3125 C3.78767799 11.6529584 0.39388221 13.21821184 -3 15 C-2.69163768 12.87439563 -2.37818386 10.74952935 -2.0625 8.625 C-1.88847656 7.44164062 -1.71445313 6.25828125 -1.53515625 5.0390625 C-1 2 -1 2 0 0 Z " fill="#AAAEC5" transform="translate(17,14)"/>
<path d="M0 0 C9.24 0 18.48 0 28 0 C28.33 0.66 28.66 1.32 29 2 C26.36 2 23.72 2 21 2 C21 2.66 21 3.32 21 4 C18.03 4 15.06 4 12 4 C11.67 5.32 11.34 6.64 11 8 C10.34 8 9.68 8 9 8 C9 7.34 9 6.68 9 6 C6.03 6 3.06 6 0 6 C-1 2 -1 2 0 0 Z " fill="#586B99" transform="translate(184,30)"/>
<path d="M0 0 C0.33 1.32 0.66 2.64 1 4 C5.95 4 10.9 4 16 4 C15.67 4.66 15.34 5.32 15 6 C17.31 6 19.62 6 22 6 C21.67 6.99 21.34 7.98 21 9 C12.42 9 3.84 9 -5 9 C-6 5 -6 5 -5 3 C-3.35 3 -1.7 3 0 3 C0 2.01 0 1.02 0 0 Z " fill="#2B3A61" transform="translate(120,40)"/>
<path d="M0 0 C4.69131592 0.50214965 7.5596434 1.68196468 11.375 4.4375 C12.68597656 5.36369141 12.68597656 5.36369141 14.0234375 6.30859375 C14.67570312 6.86675781 15.32796875 7.42492188 16 8 C16 8.66 16 9.32 16 10 C14.56260487 10.02712066 13.12506137 10.04645067 11.6875 10.0625 C10.48673828 10.07990234 10.48673828 10.07990234 9.26171875 10.09765625 C7 10 7 10 4 9 C3.67 9.66 3.34 10.32 3 11 C1.35 11 -0.3 11 -2 11 C-1.85892253 9.54119891 -1.71197585 8.08296449 -1.5625 6.625 C-1.48128906 5.81289063 -1.40007812 5.00078125 -1.31640625 4.1640625 C-1 2 -1 2 0 0 Z " fill="#566894" transform="translate(252,30)"/>
<path d="M0 0 C1.09731445 0.00676758 1.09731445 0.00676758 2.21679688 0.01367188 C3.99873419 0.02531852 5.78062863 0.04324809 7.5625 0.0625 C7.5625 1.7125 7.5625 3.3625 7.5625 5.0625 C-1.6775 5.0625 -10.9175 5.0625 -20.4375 5.0625 C-20.4375 4.4025 -20.4375 3.7425 -20.4375 3.0625 C-13.83231859 0.06014482 -7.12131684 -0.08470002 0 0 Z " fill="#2D3B63" transform="translate(234.4375,43.9375)"/>
<path d="M0 0 C2.31 0 4.62 0 7 0 C6.67 1.32 6.34 2.64 6 4 C2.37 4 -1.26 4 -5 4 C-5.2165625 6.1346875 -5.2165625 6.1346875 -5.4375 8.3125 C-5.72140874 11.11102904 -6.1031286 13.3093858 -7 16 C-8.65 16 -10.3 16 -12 16 C-12 12.7 -12 9.4 -12 6 C-11.34 5.67 -10.68 5.34 -10 5 C-9.67 4.01 -9.34 3.02 -9 2 C-6.03 2 -3.06 2 0 2 C0 1.34 0 0.68 0 0 Z " fill="#475A83" transform="translate(205,32)"/>
<path d="M0 0 C1.98 0 3.96 0 6 0 C7.54715835 4.71721009 6.18018555 8.27925781 5 13 C9.95 13 14.9 13 20 13 C20 13.33 20 13.66 20 14 C17.35409986 14.02684679 14.70846904 14.04676357 12.0625 14.0625 C10.93038086 14.07506836 10.93038086 14.07506836 9.77539062 14.08789062 C7.85005687 14.09652441 5.92464419 14.05224333 4 14 C3.67 13.67 3.34 13.34 3 13 C1.02 13.66 -0.96 14.32 -3 15 C-2.69163768 12.87439563 -2.37818386 10.74952935 -2.0625 8.625 C-1.88847656 7.44164062 -1.71445313 6.25828125 -1.53515625 5.0390625 C-1 2 -1 2 0 0 Z " fill="#5D6A8B" transform="translate(117,30)"/>
<path d="M0 0 C1.32 0 2.64 0 4 0 C3.42590968 3.57364359 2.50054964 6.28384304 0.71484375 9.42578125 C0.04291992 10.61977539 0.04291992 10.61977539 -0.64257812 11.83789062 C-1.34543945 13.06282227 -1.34543945 13.06282227 -2.0625 14.3125 C-2.77116211 15.56643555 -2.77116211 15.56643555 -3.49414062 16.84570312 C-4.65667756 18.90069265 -5.82542091 20.95187737 -7 23 C-9.31 23 -11.62 23 -14 23 C-12.68 22.67 -11.36 22.34 -10 22 C-10.09152344 21.33355469 -10.18304688 20.66710937 -10.27734375 19.98046875 C-9.87958781 15.70599289 -7.84192019 12.87863387 -5.5625 9.3125 C-4.73018246 7.97543859 -3.89813855 6.63820679 -3.06640625 5.30078125 C-2.38449219 4.21152344 -1.70257813 3.12226562 -1 2 C-0.67 1.34 -0.34 0.68 0 0 Z " fill="#BC4454" transform="translate(292,40)"/>
<path d="M0 0 C-0.99 0 -1.98 0 -3 0 C-3 0.99 -3 1.98 -3 3 C-6.63 3.66 -10.26 4.32 -14 5 C-14 5.66 -14 6.32 -14 7 C-16.43757413 7.02698422 -18.87484915 7.04683099 -21.3125 7.0625 C-22.00279297 7.07087891 -22.69308594 7.07925781 -23.40429688 7.08789062 C-26.5483025 7.10307906 -28.99420019 7.00193327 -32 6 C-32 5.34 -32 4.68 -32 4 C-30.94087402 3.82609741 -30.94087402 3.82609741 -29.86035156 3.64868164 C-26.6566175 3.12166159 -23.45330713 2.59210856 -20.25 2.0625 C-18.58324219 1.78889648 -18.58324219 1.78889648 -16.8828125 1.50976562 C-15.27792969 1.24389648 -15.27792969 1.24389648 -13.640625 0.97265625 C-12.16384277 0.72914429 -12.16384277 0.72914429 -10.65722656 0.48071289 C-8.05957847 0.04774274 -8.05957847 0.04774274 -5.78808594 -0.58813477 C-3.58027708 -1.0966784 -2.13194272 -0.6852673 0 0 Z " fill="#D77C82" transform="translate(331,31)"/>
<path d="M0 0 C9.57 0 19.14 0 29 0 C29 0.33 29 0.66 29 1 C28.01604248 1.03758423 28.01604248 1.03758423 27.01220703 1.07592773 C24.04959817 1.1917326 21.08731969 1.31452886 18.125 1.4375 C17.09246094 1.47681641 16.05992188 1.51613281 14.99609375 1.55664062 C14.00996094 1.59853516 13.02382812 1.64042969 12.0078125 1.68359375 C11.09660645 1.72025146 10.18540039 1.75690918 9.24658203 1.79467773 C6.96516519 1.86577065 6.96516519 1.86577065 5 3 C5 5.31 5 7.62 5 10 C4.01 10.495 4.01 10.495 3 11 C2.67 11.99 2.34 12.98 2 14 C0.68 14 -0.64 14 -2 14 C-2.33 14.66 -2.66 15.32 -3 16 C-2.39623622 10.36487141 -1.40669734 5.62678937 0 0 Z " fill="#7A85A6" transform="translate(82,30)"/>
<path d="M0 0 C0 0.33 0 0.66 0 1 C-12.24973949 2.75038565 -24.1991627 3.25443346 -36.5625 3.125 C-38.26757276 3.11493099 -39.9726514 3.1058122 -41.67773438 3.09765625 C-45.78530635 3.07599708 -49.89258456 3.04169314 -54 3 C-54 2.67 -54 2.34 -54 2 C-35.9663615 -0.13958423 -18.12578394 -0.22225542 0 0 Z " fill="#EC9F9F" transform="translate(69,50)"/>
<path d="M0 0 C0.33 0 0.66 0 1 0 C1 1.65 1 3.3 1 5 C6.61 5.33 12.22 5.66 18 6 C16.02 6.99 16.02 6.99 14 8 C16.97 8.33 19.94 8.66 23 9 C23 9.33 23 9.66 23 10 C13.43 10 3.86 10 -6 10 C-5.67 8.68 -5.34 7.36 -5 6 C-3.68 6 -2.36 6 -1 6 C-0.67 4.02 -0.34 2.04 0 0 Z " fill="#233563" transform="translate(85,38)"/>
<path d="M0 0 C-3.83606631 3.37939175 -7.29729554 5.87258608 -12 8 C-12 8.66 -12 9.32 -12 10 C-18.27 10 -24.54 10 -31 10 C-31 9.67 -31 9.34 -31 9 C-28.23058394 8.16169027 -25.45964931 7.32917966 -22.6875 6.5 C-21.50897461 6.14228516 -21.50897461 6.14228516 -20.30664062 5.77734375 C-19.54931641 5.55175781 -18.79199219 5.32617188 -18.01171875 5.09375 C-17.31522217 4.88427734 -16.61872559 4.67480469 -15.90112305 4.45898438 C-14 4 -14 4 -11 4 C-11 3.34 -11 2.68 -11 2 C-9.73392393 1.46770674 -8.46189588 0.94955456 -7.1875 0.4375 C-6.47980469 0.14746094 -5.77210937 -0.14257812 -5.04296875 -0.44140625 C-3 -1 -3 -1 0 0 Z " fill="#2D4E84" transform="translate(66,25)"/>
<path d="M0 0 C0.33 0 0.66 0 1 0 C1.07329796 4.39787789 1.07396066 7.70415737 0 12 C-3.63 12 -7.26 12 -11 12 C-11 10.02 -11 8.04 -11 6 C-9.73308493 5.32591692 -8.46129251 4.66099503 -7.1875 4 C-6.47980469 3.62875 -5.77210937 3.2575 -5.04296875 2.875 C-3 2 -3 2 0 2 C0 1.34 0 0.68 0 0 Z " fill="#3A558A" transform="translate(23,36)"/>
<path d="M0 0 C0 0.33 0 0.66 0 1 C7.26 1 14.52 1 22 1 C22 1.33 22 1.66 22 2 C21.42556152 2.0093457 20.85112305 2.01869141 20.25927734 2.02832031 C17.63034696 2.08235031 15.00313433 2.16592894 12.375 2.25 C11.47136719 2.26417969 10.56773437 2.27835938 9.63671875 2.29296875 C3.75571735 2.50760384 0.61965313 3.35674043 -4 7 C-4.66 7 -5.32 7 -6 7 C-6.2475 7.61875 -6.495 8.2375 -6.75 8.875 C-8.20628639 11.35068687 -9.37812506 11.95125002 -12 13 C-11.44571534 8.42715154 -9.8148129 4.62570271 -7 1 C-2.8 -1.4 -2.8 -1.4 0 0 Z " fill="#D86777" transform="translate(347,46)"/>
<path d="M0 0 C2.75 -0.25 2.75 -0.25 5 0 C5.64453125 1.765625 5.64453125 1.765625 6 4 C5.07421875 5.921875 5.07421875 5.921875 3.6875 7.75 C3.01267578 8.67039062 3.01267578 8.67039062 2.32421875 9.609375 C1.88722656 10.06828125 1.45023437 10.5271875 1 11 C0.34 11 -0.32 11 -1 11 C-1.33 13.31 -1.66 15.62 -2 18 C-4.31 18 -6.62 18 -9 18 C-9 17.67 -9 17.34 -9 17 C-8.236875 16.979375 -7.47375 16.95875 -6.6875 16.9375 C-3.58610882 16.20339051 -3.58610882 16.20339051 -2.1875 12.4375 C-1.795625 11.303125 -1.40375 10.16875 -1 9 C-0.34 9 0.32 9 1 9 C1.33 7.68 1.66 6.36 2 5 C1.01 5.66 0.02 6.32 -1 7 C-3.14477539 7.21118164 -3.14477539 7.21118164 -5.59765625 7.16015625 C-6.48130859 7.14919922 -7.36496094 7.13824219 -8.27539062 7.12695312 C-9.19513672 7.10568359 -10.11488281 7.08441406 -11.0625 7.0625 C-12.8866408 7.02813029 -14.71086738 6.99797509 -16.53515625 6.97265625 C-17.343479 6.95468994 -18.15180176 6.93672363 -18.98461914 6.91821289 C-21.07168898 6.86477012 -21.07168898 6.86477012 -23 8 C-22.67 7.01 -22.34 6.02 -22 5 C-20.74703125 4.97421875 -19.4940625 4.9484375 -18.203125 4.921875 C-16.55204877 4.86558831 -14.90100845 4.8082411 -13.25 4.75 C-12.0125 4.72873047 -12.0125 4.72873047 -10.75 4.70703125 C-5.74308955 4.568919 -5.74308955 4.568919 -1.59375 1.96875 C-1.0678125 1.3190625 -0.541875 0.669375 0 0 Z " fill="#973C45" transform="translate(331,41)"/>
<path d="M0 0 C1.63001953 0.02707031 1.63001953 0.02707031 3.29296875 0.0546875 C4.54013672 0.08949219 4.54013672 0.08949219 5.8125 0.125 C5.4825 1.775 5.1525 3.425 4.8125 5.125 C4.09594238 5.15005615 3.37938477 5.1751123 2.64111328 5.20092773 C-0.59361514 5.31669751 -3.82803841 5.43950969 -7.0625 5.5625 C-8.19042969 5.60181641 -9.31835938 5.64113281 -10.48046875 5.68164062 C-11.55683594 5.72353516 -12.63320313 5.76542969 -13.7421875 5.80859375 C-15.23468018 5.86358032 -15.23468018 5.86358032 -16.75732422 5.91967773 C-19.19529501 5.97459532 -19.19529501 5.97459532 -21.1875 7.125 C-20.49609375 5.1640625 -20.49609375 5.1640625 -19.1875 3.125 C-16.91015625 2.5859375 -16.91015625 2.5859375 -14.25 2.5 C-8.88765154 2.29466707 -5.50542532 -0.11839624 0 0 Z " fill="#932A3C" transform="translate(367.1875,40.875)"/>
<path d="M0 0 C0.95310059 0.01047363 1.90620117 0.02094727 2.88818359 0.03173828 C4.43505859 0.04140625 4.43505859 0.04140625 6.01318359 0.05126953 C7.63353516 0.07640625 7.63353516 0.07640625 9.28662109 0.10205078 C10.37458984 0.11107422 11.46255859 0.12009766 12.58349609 0.12939453 C15.27642261 0.15301669 17.96891365 0.18595522 20.66162109 0.22705078 C20.66162109 0.55705078 20.66162109 0.88705078 20.66162109 1.22705078 C19.92556641 1.34822266 19.18951172 1.46939453 18.43115234 1.59423828 C17.45533203 1.76181641 16.47951172 1.92939453 15.47412109 2.10205078 C14.51119141 2.26447266 13.54826172 2.42689453 12.55615234 2.59423828 C9.65879348 3.14041297 9.65879348 3.14041297 7.04833984 4.29736328 C4.66162109 5.22705078 4.66162109 5.22705078 0.66162109 5.22705078 C0.66162109 5.88705078 0.66162109 6.54705078 0.66162109 7.22705078 C-0.98837891 7.55705078 -2.63837891 7.88705078 -4.33837891 8.22705078 C-4.66837891 9.54705078 -4.99837891 10.86705078 -5.33837891 12.22705078 C-5.22439225 10.60124112 -5.09682232 8.97637921 -4.96337891 7.35205078 C-4.89376953 6.44712891 -4.82416016 5.54220703 -4.75244141 4.60986328 C-4.18573456 1.34862575 -3.33253872 0.32358123 0 0 Z " fill="#AEB8D2" transform="translate(219.33837890625,29.77294921875)"/>
<path d="M0 0 C0.75925781 0.08507813 1.51851563 0.17015625 2.30078125 0.2578125 C1.37265625 0.350625 1.37265625 0.350625 0.42578125 0.4453125 C-1.93709372 1.06474773 -1.93709372 1.06474773 -2.76171875 3.5703125 C-3.07109375 4.4571875 -3.38046875 5.3440625 -3.69921875 6.2578125 C-4.17359375 6.8765625 -4.64796875 7.4953125 -5.13671875 8.1328125 C-7.20898422 10.95109354 -8.38961878 14.04047796 -9.69921875 17.2578125 C-11.86144657 22.51022424 -13.90676997 26.94226733 -17.69921875 31.2578125 C-18.02921875 31.9178125 -18.35921875 32.5778125 -18.69921875 33.2578125 C-19.35921875 33.2578125 -20.01921875 33.2578125 -20.69921875 33.2578125 C-21.02921875 34.2478125 -21.35921875 35.2378125 -21.69921875 36.2578125 C-22.35921875 35.9278125 -23.01921875 35.5978125 -23.69921875 35.2578125 C-22.26446174 32.83947993 -20.82653422 30.42313086 -19.38671875 28.0078125 C-18.98259766 27.32589844 -18.57847656 26.64398437 -18.16210938 25.94140625 C-16.1549348 22.5797968 -14.14366732 19.32721717 -11.69921875 16.2578125 C-12.35921875 15.9278125 -13.01921875 15.5978125 -13.69921875 15.2578125 C-12.70921875 15.2578125 -11.71921875 15.2578125 -10.69921875 15.2578125 C-10.49296875 14.4534375 -10.28671875 13.6490625 -10.07421875 12.8203125 C-5.3222318 0.50834631 -5.3222318 0.50834631 0 0 Z " fill="#F0B6B6" transform="translate(315.69921875,0.7421875)"/>
<path d="M0 0 C2.97 0 5.94 0 9 0 C8.88648483 1.81325551 8.75887039 3.62563357 8.625 5.4375 C8.55539063 6.44683594 8.48578125 7.45617188 8.4140625 8.49609375 C8.27742188 9.32238281 8.14078125 10.14867187 8 11 C5.28598706 12.35700647 3.15153684 12.1123861 0.1171875 12.09765625 C-1.04941406 12.09443359 -2.21601563 12.09121094 -3.41796875 12.08789062 C-4.64128906 12.07951172 -5.86460937 12.07113281 -7.125 12.0625 C-8.35605469 12.05798828 -9.58710938 12.05347656 -10.85546875 12.04882812 C-13.90369392 12.0370133 -16.95182314 12.02054028 -20 12 C-20 11.34 -20 10.68 -20 10 C-11.42 10 -2.84 10 6 10 C6 7.03 6 4.06 6 1 C4.02 1 2.04 1 0 1 C0 0.67 0 0.34 0 0 Z " fill="#353E5C" transform="translate(168,37)"/>
<path d="M0 0 C1.24523437 0.02707031 2.49046875 0.05414063 3.7734375 0.08203125 C4.71445312 0.11683594 5.65546875 0.15164062 6.625 0.1875 C6.625 1.1775 6.625 2.1675 6.625 3.1875 C6.295 2.5275 5.965 1.8675 5.625 1.1875 C1.49653445 2.25546463 1.49653445 2.25546463 -1.82348633 4.7434082 C-3.79391121 6.57740713 -4.73494993 6.54028308 -7.38671875 6.48046875 C-8.14404297 6.47080078 -8.90136719 6.46113281 -9.68164062 6.45117188 C-10.86016602 6.4134668 -10.86016602 6.4134668 -12.0625 6.375 C-13.25842773 6.35469727 -13.25842773 6.35469727 -14.47851562 6.33398438 C-16.44429967 6.29867089 -18.40973582 6.24486447 -20.375 6.1875 C-20.375 5.8575 -20.375 5.5275 -20.375 5.1875 C-17.93359375 4.55273438 -17.93359375 4.55273438 -15.4921875 3.91796875 C-13.19782614 3.19691956 -13.19782614 3.19691956 -10.59375 1.625 C-6.80385196 -0.06757582 -4.12807946 -0.11683244 0 0 Z " fill="#D2666D" transform="translate(330.375,39.8125)"/>
<path d="M0 0 C0.33 0.99 0.66 1.98 1 3 C0 4 0 4 -2.77563477 4.11352539 C-3.98533936 4.10828857 -5.19504395 4.10305176 -6.44140625 4.09765625 C-7.74658203 4.09443359 -9.05175781 4.09121094 -10.39648438 4.08789062 C-11.7851569 4.07953401 -13.17382877 4.07106905 -14.5625 4.0625 C-15.95507656 4.05748666 -17.34765481 4.05292347 -18.74023438 4.04882812 C-22.1601987 4.03699434 -25.58007844 4.0205088 -29 4 C-28.360625 3.690625 -27.72125 3.38125 -27.0625 3.0625 C-25.06389179 2.1654837 -25.06389179 2.1654837 -24 1 C-22.30361243 0.92500497 -20.60416839 0.9168077 -18.90625 0.9375 C-17.36130859 0.94910156 -17.36130859 0.94910156 -15.78515625 0.9609375 C-12.5 1 -12.5 1 -9.21484375 1.0390625 C-7.66990234 1.05066406 -7.66990234 1.05066406 -6.09375 1.0625 C-4.66579102 1.07990234 -4.66579102 1.07990234 -3.20898438 1.09765625 C-1.02511331 1.25017566 -1.02511331 1.25017566 0 0 Z " fill="#97253A" transform="translate(365,55)"/>
<path d="M0 0 C-1 3 -1 3 -3.25 4.28125 C-5.08333333 5.09375 -6.91666667 5.90625 -8.75 6.71875 C-11.32153095 7.85140996 -11.32153095 7.85140996 -12 11 C-10.68 10.67 -9.36 10.34 -8 10 C-9.28965176 11.37562854 -10.62689293 12.70766393 -12 14 C-12.66 14 -13.32 14 -14 14 C-14 15.98 -14 17.96 -14 20 C-14.66 20 -15.32 20 -16 20 C-15.77065591 18.08075213 -15.51565657 16.1645594 -15.25 14.25 C-15.04117187 12.64898437 -15.04117187 12.64898437 -14.828125 11.015625 C-13.87867598 7.55819742 -12.61251583 6.36566394 -10 4 C-9.67 3.01 -9.34 2.02 -9 1 C-5.65441284 -0.80842549 -3.59559792 -1.33170293 0 0 Z M-7 8 C-6.67 8.66 -6.34 9.32 -6 10 C-6.66 9.67 -7.32 9.34 -8 9 C-7.67 8.67 -7.34 8.34 -7 8 Z " fill="#707EA7" transform="translate(26,28)"/>
<path d="M0 0 C2.97 0 5.94 0 9 0 C8.67 1.65 8.34 3.3 8 5 C4.04886452 6.30351387 0.06175257 6.12612281 -4.046875 6.09765625 C-4.81807678 6.0962413 -5.58927856 6.09482635 -6.3838501 6.09336853 C-8.83927338 6.08778534 -11.29460442 6.07523595 -13.75 6.0625 C-15.41796743 6.05748283 -17.08593629 6.0529203 -18.75390625 6.04882812 C-22.83597287 6.03782141 -26.91797081 6.02056836 -31 6 C-31 5.67 -31 5.34 -31 5 C-19.78 4.67 -8.56 4.34 3 4 C3 3.01 3 2.02 3 1 C2.01 0.67 1.02 0.34 0 0 Z " fill="#CD5D70" transform="translate(245,44)"/>
<path d="M0 0 C1.32 0 2.64 0 4 0 C2.55049545 3.7910119 0.84827434 7.3874638 -1 11 C-1.66 11 -2.32 11 -3 11 C-5.43160605 14.36683915 -6 15.73350364 -6 20 C-7.65 20.33 -9.3 20.66 -11 21 C-8.18221166 13.74871899 -4.9473454 6.0644879 0 0 Z " fill="#C46F73" transform="translate(314,2)"/>
<path d="M0 0 C0 3.1930458 -0.20562933 4.41105464 -2 7 C-4.42578125 8.046875 -4.42578125 8.046875 -7.3125 8.75 C-8.72982422 9.11351562 -8.72982422 9.11351562 -10.17578125 9.484375 C-12.85960036 9.97436687 -15.2800129 10.09908878 -18 10 C-18 9.01 -18 8.02 -18 7 C-16.86820312 6.57847656 -15.73640625 6.15695313 -14.5703125 5.72265625 C-13.08852006 5.16932869 -11.60675041 4.61594011 -10.125 4.0625 C-9.37863281 3.78470703 -8.63226563 3.50691406 -7.86328125 3.22070312 C-3.87275485 1.74900806 -3.87275485 1.74900806 0 0 Z " fill="#D25A69" transform="translate(350,22)"/>
<path d="M0 0 C3.96 0 7.92 0 12 0 C11.67 1.32 11.34 2.64 11 4 C10.484375 4.103125 9.96875 4.20625 9.4375 4.3125 C5.19264692 5.50976625 1.14734075 6.85265925 -2 10 C-1.125 2.25 -1.125 2.25 0 0 Z " fill="#7384AA" transform="translate(61,14)"/>
<path d="M0 0 C1.05638672 0.00451172 2.11277344 0.00902344 3.20117188 0.01367188 C5.78000908 0.02534082 8.35872294 0.04171115 10.9375 0.0625 C10.9375 0.3925 10.9375 0.7225 10.9375 1.0625 C-0.76790485 3.26587033 -12.19582646 3.28332273 -24.0625 3.0625 C-17.43704734 -1.35446844 -7.72193434 -0.06333448 0 0 Z " fill="#D34E5A" transform="translate(147.0625,49.9375)"/>
<path d="M0 0 C10.23 0 20.46 0 31 0 C30.67 1.32 30.34 2.64 30 4 C30 3.01 30 2.02 30 1 C17.625 1.495 17.625 1.495 5 2 C4.67 3.65 4.34 5.3 4 7 C3.34 6.01 2.68 5.02 2 4 C-0.31 6.64 -2.62 9.28 -5 12 C-5 9 -5 9 0 0 Z " fill="#BE4B5E" transform="translate(379,40)"/>
<path d="M0 0 C0.495 1.485 0.495 1.485 1 3 C-0.77442409 5.99816485 -2.53540571 8.53540571 -5 11 C-7.33837891 11.22705078 -7.33837891 11.22705078 -10.2265625 11.1953125 C-11.7734375 11.18564453 -11.7734375 11.18564453 -13.3515625 11.17578125 C-14.43179687 11.15902344 -15.51203125 11.14226563 -16.625 11.125 C-17.71296875 11.11597656 -18.8009375 11.10695313 -19.921875 11.09765625 C-22.61480152 11.07403409 -25.30729255 11.04109556 -28 11 C-28.309375 11.78375 -28.61875 12.5675 -28.9375 13.375 C-30 16 -30 16 -31 18 C-33.31 18 -35.62 18 -38 18 C-38 17.34 -38 16.68 -38 16 C-36.02 16 -34.04 16 -32 16 C-31.690625 15.195625 -31.38125 14.39125 -31.0625 13.5625 C-30 11 -30 11 -29 10 C-27.41280046 9.89121589 -25.82126622 9.8442134 -24.23046875 9.82421875 C-22.77350586 9.78844727 -22.77350586 9.78844727 -21.28710938 9.75195312 C-19.23262837 9.70923235 -17.1778781 9.67784778 -15.12304688 9.65820312 C-9.39141998 9.61216125 -9.39141998 9.61216125 -4.41015625 7.12890625 C-2.86057042 4.78950382 -1.36309535 2.45357163 0 0 Z " fill="#4E3135" transform="translate(408,42)"/>
<path d="M0 0 C-3 2 -3 2 -6.125 2.5 C-7.07375 2.665 -8.0225 2.83 -9 3 C-9.33 3.66 -9.66 4.32 -10 5 C-12.21484375 5.5625 -12.21484375 5.5625 -14.9375 6 C-18.92315275 6.5548011 -18.92315275 6.5548011 -22 9 C-22 8.01 -22 7.02 -22 6 C-23.32 5.67 -24.64 5.34 -26 5 C-23.0835095 4.18686324 -20.16681631 3.3744665 -17.25 2.5625 C-16.425 2.33240234 -15.6 2.10230469 -14.75 1.86523438 C-13.95078125 1.64287109 -13.1515625 1.42050781 -12.328125 1.19140625 C-11.5949707 0.98717041 -10.86181641 0.78293457 -10.10644531 0.57250977 C-9.41131836 0.38358154 -8.71619141 0.19465332 -8 0 C-7.29713867 -0.19859619 -6.59427734 -0.39719238 -5.87011719 -0.60180664 C-3.62362455 -1.08013947 -2.16398079 -0.69556525 0 0 Z " fill="#C79194" transform="translate(267,24)"/>
<path d="M0 0 C6.6 0 13.2 0 20 0 C20 0.66 20 1.32 20 2 C18.95199219 2.03738281 17.90398437 2.07476562 16.82421875 2.11328125 C15.44527695 2.17894515 14.06637229 2.24539235 12.6875 2.3125 C11.65206055 2.34633789 11.65206055 2.34633789 10.59570312 2.38085938 C6.58600063 2.53721204 6.58600063 2.53721204 3.21875 4.5 C2.8165625 4.995 2.414375 5.49 2 6 C-1.1875 6.6875 -1.1875 6.6875 -4 7 C-4 6.34 -4 5.68 -4 5 C-3.01 4.34 -2.02 3.68 -1 3 C-0.67 2.01 -0.34 1.02 0 0 Z " fill="#E0898F" transform="translate(307,48)"/>
<path d="M0 0 C5.78591511 -0.10477512 11.29309366 0.00749455 17 1 C14.63676548 3.36323452 14.07631822 3.27105056 10.859375 3.37890625 C9.62380859 3.43014648 9.62380859 3.43014648 8.36328125 3.48242188 C7.50089844 3.50884766 6.63851563 3.53527344 5.75 3.5625 C0.41752769 3.75323531 -4.74789206 3.96159304 -10 5 C-10 5.66 -10 6.32 -10 7 C-10.66 7 -11.32 7 -12 7 C-12 6.01 -12 5.02 -12 4 C-7.8803623 2.70756464 -4.33168317 1.73747375 0 2 C0 1.34 0 0.68 0 0 Z " fill="#E9CFD0" transform="translate(12,48)"/>
<path d="M0 0 C1.2065625 0.0309375 1.2065625 0.0309375 2.4375 0.0625 C3.69291557 3.82874671 2.80811958 5.43438934 1.4375 9.0625 C-0.5425 9.3925 -2.5225 9.7225 -4.5625 10.0625 C-4.42200482 8.58281676 -4.27495174 7.10375484 -4.125 5.625 C-4.04378906 4.80128906 -3.96257812 3.97757813 -3.87890625 3.12890625 C-3.4093501 0.06229881 -3.15462671 0.07694211 0 0 Z " fill="#6C7698" transform="translate(276.5625,29.9375)"/>
<path d="M0 0 C0.9897583 0.0628418 1.9795166 0.12568359 2.99926758 0.19042969 C4.60898437 0.27744141 4.60898437 0.27744141 6.2512207 0.36621094 C7.37077148 0.44742188 8.49032227 0.52863281 9.64379883 0.61230469 C11.34052734 0.71091797 11.34052734 0.71091797 13.0715332 0.81152344 C15.86811885 0.97672259 18.66211602 1.16102478 21.45629883 1.36230469 C20.79629883 2.68230469 20.13629883 4.00230469 19.45629883 5.36230469 C19.45629883 4.70230469 19.45629883 4.04230469 19.45629883 3.36230469 C18.80556396 3.39259766 18.1548291 3.42289063 17.484375 3.45410156 C14.53754885 3.59088185 11.59067495 3.72660535 8.64379883 3.86230469 C7.61963867 3.91 6.59547852 3.95769531 5.5402832 4.00683594 C4.06591797 4.07451172 4.06591797 4.07451172 2.56176758 4.14355469 C1.20281372 4.20639648 1.20281372 4.20639648 -0.18359375 4.27050781 C-1.96920806 4.33995966 -3.7567367 4.36230469 -5.54370117 4.36230469 C-3.92589665 1.57249066 -3.27692246 0.46673893 0 0 Z " fill="#B63A4F" transform="translate(343.543701171875,52.6376953125)"/>
<path d="M0 0 C0 0.33 0 0.66 0 1 C-4.95 1.66 -9.9 2.32 -15 3 C-15 3.66 -15 4.32 -15 5 C-20.28 4.67 -25.56 4.34 -31 4 C-31 3.67 -31 3.34 -31 3 C-20.50755115 0.86594261 -10.74730045 -0.45986864 0 0 Z " fill="#B55E64" transform="translate(135,50)"/>
<path d="M0 0 C0.66 0.33 1.32 0.66 2 1 C1.67 2.65 1.34 4.3 1 6 C3.31 6 5.62 6 8 6 C8 6.66 8 7.32 8 8 C7.39671875 8.13277344 6.7934375 8.26554687 6.171875 8.40234375 C5.37265625 8.57894531 4.5734375 8.75554688 3.75 8.9375 C2.96109375 9.11152344 2.1721875 9.28554688 1.359375 9.46484375 C-0.76878703 9.947556 -2.88532842 10.46163178 -5 11 C-5.218934 7.16865501 -4.80266269 4.41557141 -3 1 C-2.01 0.67 -1.02 0.34 0 0 Z " fill="#49608C" transform="translate(218,37)"/>
<path d="M0 0 C0.33 0.66 0.66 1.32 1 2 C2.65 2 4.3 2 6 2 C6.33 1.34 6.66 0.68 7 0 C11.29 0.66 15.58 1.32 20 2 C20 2.66 20 3.32 20 4 C12.41 4 4.82 4 -3 4 C-2.67 3.34 -2.34 2.68 -2 2 C-1.34 2 -0.68 2 0 2 C0 1.34 0 0.68 0 0 Z " fill="#EC9F9F" transform="translate(249,39)"/>
<path d="M0 0 C2.5 0.125 2.5 0.125 3.5 1.125 C3.40997602 3.14908755 3.25358962 5.17044287 3.0625 7.1875 C2.96066406 8.29222656 2.85882813 9.39695312 2.75390625 10.53515625 C2.62822266 11.81712891 2.62822266 11.81712891 2.5 13.125 C2.17 13.125 1.84 13.125 1.5 13.125 C1.5 10.815 1.5 8.505 1.5 6.125 C-0.44999129 6.31971111 -0.44999129 6.31971111 -2.5 7.125 C-3.6470525 9.12713945 -3.6470525 9.12713945 -4.5 11.125 C-4.35957123 9.47869672 -4.21250671 7.83295821 -4.0625 6.1875 C-3.98128906 5.27097656 -3.90007812 4.35445312 -3.81640625 3.41015625 C-3.37541715 0.22523499 -3.24219597 0.1621098 0 0 Z " fill="#5F6E8E" transform="translate(141.5,29.875)"/>
<path d="M0 0 C9.24 0 18.48 0 28 0 C28 0.33 28 0.66 28 1 C26.81664062 1.03738281 25.63328125 1.07476563 24.4140625 1.11328125 C15.91323194 1.44493768 8.00351045 1.80261769 0 5 C-0.33 4.01 -0.66 3.02 -1 2 C-0.67 1.34 -0.34 0.68 0 0 Z " fill="#C5CAD8" transform="translate(184,30)"/>
<path d="M0 0 C0.66 0.33 1.32 0.66 2 1 C1.36191406 2.02480469 0.72382813 3.04960938 0.06640625 4.10546875 C-0.76862055 5.46590568 -1.60323432 6.82659619 -2.4375 8.1875 C-2.85837891 8.86103516 -3.27925781 9.53457031 -3.71289062 10.22851562 C-5.88936288 13.79793012 -7.5467257 16.75570427 -8 21 C-9.32 21 -10.64 21 -12 21 C-10.42341158 16.68901603 -8.28679418 12.77710513 -6 8.8125 C-5.64421875 8.18408203 -5.2884375 7.55566406 -4.921875 6.90820312 C-3.44557229 4.33293627 -2.10861274 2.10861274 0 0 Z " fill="#E8A3A6" transform="translate(290,41)"/>
<path d="M0 0 C9.24 0 18.48 0 28 0 C28 0.33 28 0.66 28 1 C27.11646851 1.00616333 27.11646851 1.00616333 26.21508789 1.01245117 C23.49660015 1.0457366 20.78025184 1.11641192 18.0625 1.1875 C17.13630859 1.19330078 16.21011719 1.19910156 15.25585938 1.20507812 C8.35416009 1.42302652 3.71612144 3.1459685 -2 7 C-1.34 4.69 -0.68 2.38 0 0 Z " fill="#D0D3E0" transform="translate(151,30)"/>
<path d="M0 0 C0.87785156 -0.00515625 1.75570313 -0.0103125 2.66015625 -0.015625 C4.9375 0.25 4.9375 0.25 6.9375 2.25 C3.85729223 2.95204038 0.77298264 3.63405208 -2.3125 4.3125 C-3.62154297 4.61124023 -3.62154297 4.61124023 -4.95703125 4.91601562 C-6.22353516 5.19155273 -6.22353516 5.19155273 -7.515625 5.47265625 C-8.29067383 5.64547119 -9.06572266 5.81828613 -9.86425781 5.99633789 C-12.21425291 6.26751125 -13.82447268 5.96554459 -16.0625 5.25 C-15.51980469 5.05664062 -14.97710937 4.86328125 -14.41796875 4.6640625 C-13.70253906 4.40367188 -12.98710937 4.14328125 -12.25 3.875 C-11.54230469 3.61976562 -10.83460938 3.36453125 -10.10546875 3.1015625 C-2.62743065 -0.01547824 -2.62743065 -0.01547824 0 0 Z " fill="#A24252" transform="translate(273.0625,21.75)"/>
<path d="M0 0 C0 0.66 0 1.32 0 2 C-7.17859349 4.04061541 -13.52605426 5.37369729 -21 5 C-15.89458736 -0.10541264 -6.8424102 -0.21382532 0 0 Z " fill="#596B95" transform="translate(245,30)"/>
<path d="M0 0 C0 0.66 0 1.32 0 2 C-2.41267325 2.867242 -4.82904469 3.71896936 -7.25 4.5625 C-7.93191406 4.80935547 -8.61382812 5.05621094 -9.31640625 5.31054688 C-15.58342161 7.47053761 -15.58342161 7.47053761 -19 6 C-12.50320831 1.98727572 -7.73752038 -0.8759457 0 0 Z " fill="#425A8F" transform="translate(55,27)"/>
<path d="M0 0 C0.515625 0.495 1.03125 0.99 1.5625 1.5 C4.80680017 3.49649241 7.26217334 3.21564385 11 3 C11 3.99 11 4.98 11 6 C12.65 6 14.3 6 16 6 C16 6.33 16 6.66 16 7 C10.21408489 7.10477512 4.70690634 6.99250545 -1 6 C-1.625 4.125 -1.625 4.125 -2 2 C-1.34 1.34 -0.68 0.68 0 0 Z " fill="#D39496" transform="translate(227,36)"/>
<path d="M0 0 C0.042721 1.66611905 0.04063832 3.33382885 0 5 C-0.33 5.33 -0.66 5.66 -1 6 C-7.39431616 5.64476021 -7.39431616 5.64476021 -9.9375 2.9375 C-10.4634375 1.9784375 -10.4634375 1.9784375 -11 1 C-7.27569643 0.30710631 -3.78916254 -0.11144596 0 0 Z " fill="#393A59" transform="translate(276,42)"/>
<path d="M0 0 C0 0.33 0 0.66 0 1 C-10.43387625 2.67901457 -20.445283 3.24965165 -31 3 C-31 2.67 -31 2.34 -31 2 C-20.55092369 0.14533035 -10.57699095 -0.23049133 0 0 Z " fill="#CD4051" transform="translate(175,50)"/>
<path d="M0 0 C1.26026798 2.52053595 0.91874445 3.8542098 0.5625 6.625 C0.46066406 7.44226562 0.35882813 8.25953125 0.25390625 9.1015625 C0.17011719 9.72804688 0.08632812 10.35453125 0 11 C-1.65 11 -3.3 11 -5 11 C-5.36783439 4.50159236 -5.36783439 4.50159236 -3.625 2.125 C-2 1 -2 1 0 0 Z " fill="#233462" transform="translate(198,37)"/>
<path d="M0 0 C2.7885289 -0.22107787 5.34653181 -0.28107535 8.125 -0.1875 C8.87910156 -0.17396484 9.63320312 -0.16042969 10.41015625 -0.14648438 C12.27374127 -0.11109985 14.13695978 -0.05729167 16 0 C15 2 15 2 13 3 C10.44842345 3.0716735 7.92527029 3.09308442 5.375 3.0625 C4.66859375 3.05798828 3.9621875 3.05347656 3.234375 3.04882812 C1.48954725 3.03703875 -0.255237 3.01910324 -2 3 C-1.34 2.01 -0.68 1.02 0 0 Z " fill="#526592" transform="translate(164,31)"/>
<path d="M0 0 C9.57 0 19.14 0 29 0 C29 0.33 29 0.66 29 1 C28.3702124 1.01458252 27.7404248 1.02916504 27.09155273 1.04418945 C24.20628679 1.11918994 21.32211277 1.21567639 18.4375 1.3125 C17.44685547 1.33505859 16.45621094 1.35761719 15.43554688 1.38085938 C9.56711513 1.59532034 5.22002073 2.26918971 0 5 C-0.33 4.34 -0.66 3.68 -1 3 C-0.67 2.01 -0.34 1.02 0 0 Z " fill="#C6CDD9" transform="translate(82,30)"/>
<path d="M0 0 C0.87462891 0.05220703 1.74925781 0.10441406 2.65039062 0.15820312 C4.78814632 0.2867021 6.92538669 0.42372641 9.0625 0.5625 C9.0625 0.8925 9.0625 1.2225 9.0625 1.5625 C7.804375 1.665625 6.54625 1.76875 5.25 1.875 C2.45750343 2.21108808 1.31816879 2.36275876 -0.9375 4.125 C-1.2675 4.599375 -1.5975 5.07375 -1.9375 5.5625 C-1.9375 4.5725 -1.9375 3.5825 -1.9375 2.5625 C-4.2475 2.8925 -6.5575 3.2225 -8.9375 3.5625 C-8.9375 2.9025 -8.9375 2.2425 -8.9375 1.5625 C-11.5775 1.5625 -14.2175 1.5625 -16.9375 1.5625 C-16.9375 1.2325 -16.9375 0.9025 -16.9375 0.5625 C-11.1748997 -0.49306451 -5.8315924 -0.38581638 0 0 Z " fill="#D58E92" transform="translate(277.9375,39.4375)"/>
<path d="M0 0 C-0.99 0 -1.98 0 -3 0 C-3 0.99 -3 1.98 -3 3 C-7.84241633 4.33583899 -11.93437617 5.25328119 -17 5 C-17 4.34 -17 3.68 -17 3 C-15.58398286 2.51891725 -14.16715563 2.04021859 -12.75 1.5625 C-11.96109375 1.29566406 -11.1721875 1.02882812 -10.359375 0.75390625 C-3.98819188 -1.28191882 -3.98819188 -1.28191882 0 0 Z " fill="#D66971" transform="translate(331,31)"/>
<path d="M0 0 C-1 2 -1 2 -3.875 3.0625 C-8.82338359 4.37449314 -13.90961801 4.65020883 -19 5 C-19 4.34 -19 3.68 -19 3 C-12.43345544 0.6969113 -6.96327638 -0.33693273 0 0 Z " fill="#495F90" transform="translate(168,37)"/>
<path d="M0 0 C5.53846154 0.61538462 5.53846154 0.61538462 7.875 2.5625 C8.431875 3.2740625 8.431875 3.2740625 9 4 C5.35206816 5.27253436 1.8063457 6.32829194 -2 7 C-1.34 4.69 -0.68 2.38 0 0 Z " fill="#A5ACC6" transform="translate(252,30)"/>
<path d="M0 0 C1.4539304 0.03304387 2.90746075 0.09241162 4.359375 0.17578125 C5.10445313 0.19833984 5.84953125 0.22089844 6.6171875 0.24414062 C8.448784 0.30284564 10.27934153 0.39252368 12.109375 0.48828125 C12.109375 0.81828125 12.109375 1.14828125 12.109375 1.48828125 C10.82353516 1.45734375 10.82353516 1.45734375 9.51171875 1.42578125 C2.67898419 1.39528188 2.67898419 1.39528188 -3.2421875 4.3359375 C-5.09248997 6.50409582 -5.09248997 6.50409582 -6.62109375 8.7734375 C-7.24951172 9.62228516 -7.24951172 9.62228516 -7.890625 10.48828125 C-8.550625 10.48828125 -9.210625 10.48828125 -9.890625 10.48828125 C-7.95384665 4.83934439 -6.31595689 0.79266527 0 0 Z " fill="#E18C8F" transform="translate(310.890625,39.51171875)"/>
<path d="M0 0 C0.33 0 0.66 0 1 0 C1.07329796 4.39787789 1.07396066 7.70415737 0 12 C-3.63 12 -7.26 12 -11 12 C-9.68 11.34 -8.36 10.68 -7 10 C-6.34 9.34 -5.68 8.68 -5 8 C-3.68 8 -2.36 8 -1 8 C-0.67 5.36 -0.34 2.72 0 0 Z " fill="#2E4265" transform="translate(23,36)"/>
<path d="M0 0 C-0.33 0.99 -0.66 1.98 -1 3 C-7.435 3.495 -7.435 3.495 -14 4 C-14 3.01 -14 2.02 -14 1 C-9.23692563 0.04738513 -4.8333472 -0.08333357 0 0 Z " fill="#C0364F" transform="translate(304,17)"/>
<path d="M0 0 C0.99 0 1.98 0 3 0 C3 3.3 3 6.6 3 10 C2.01 10.495 2.01 10.495 1 11 C0.67 9.35 0.34 7.7 0 6 C-0.99 6.66 -1.98 7.32 -3 8 C-3 6.35 -3 4.7 -3 3 C-2.01 2.67 -1.02 2.34 0 2 C0 1.34 0 0.68 0 0 Z " fill="#2F4168" transform="translate(107,34)"/>
<path d="M0 0 C-0.33 0.99 -0.66 1.98 -1 3 C-2.84765625 3.73046875 -2.84765625 3.73046875 -5.0625 4.1875 C-5.79597656 4.34605469 -6.52945312 4.50460938 -7.28515625 4.66796875 C-8.13400391 4.83232422 -8.13400391 4.83232422 -9 5 C-9.103125 5.639375 -9.20625 6.27875 -9.3125 6.9375 C-9.539375 7.618125 -9.76625 8.29875 -10 9 C-10.99 9.33 -11.98 9.66 -13 10 C-12.09739762 6.02854952 -11.34471286 4.29109086 -8.1875 1.625 C-5.04094261 0.0208727 -3.45126468 -0.40603114 0 0 Z " fill="#8B95B8" transform="translate(26,24)"/>
<path d="M0 0 C0.66 0 1.32 0 2 0 C2 0.66 2 1.32 2 2 C5.99795892 2.95619733 9.70803922 3.1039592 13.8125 3.0625 C15.55466797 3.04896484 15.55466797 3.04896484 17.33203125 3.03515625 C18.21246094 3.02355469 19.09289062 3.01195312 20 3 C16.52826698 5.0813338 13.4435662 5.44008817 9.4375 5.75 C8.30183594 5.84796875 7.16617187 5.9459375 5.99609375 6.046875 C3 6 3 6 0 4 C0 2.68 0 1.36 0 0 Z " fill="#A86365" transform="translate(295,34)"/>
<path d="M0 0 C0.66 0 1.32 0 2 0 C0.7580393 3.43927579 -0.55740284 6.25207819 -3 9 C-3.66 9 -4.32 9 -5 9 C-5.33 11.31 -5.66 13.62 -6 16 C-8.31 16 -10.62 16 -13 16 C-13 15.67 -13 15.34 -13 15 C-12.236875 14.979375 -11.47375 14.95875 -10.6875 14.9375 C-7.58610882 14.20339051 -7.58610882 14.20339051 -6.1875 10.4375 C-5.795625 9.303125 -5.40375 8.16875 -5 7 C-4.34 7 -3.68 7 -3 7 C-2.690625 6.030625 -2.38125 5.06125 -2.0625 4.0625 C-1 1 -1 1 0 0 Z " fill="#624346" transform="translate(335,43)"/>
<path d="M0 0 C1.98 0 3.96 0 6 0 C5.375 2.875 5.375 2.875 4 6 C0.875 7.375 0.875 7.375 -2 8 C-1.34 5.36 -0.68 2.72 0 0 Z " fill="#C7CADB" transform="translate(117,30)"/>
<path d="M0 0 C1.32 0 2.64 0 4 0 C3.40165275 4.14298667 1.99335715 7.18194377 -0.0625 10.8125 C-0.61035156 11.78832031 -1.15820312 12.76414062 -1.72265625 13.76953125 C-2.14417969 14.50558594 -2.56570313 15.24164063 -3 16 C-3.5859375 14.14453125 -3.5859375 14.14453125 -4 12 C-3.00664799 10.32936253 -2.00568242 8.66324401 -1 7 C-0.28076792 3.30476048 -0.28076792 3.30476048 0 0 Z " fill="#963F4D" transform="translate(292,40)"/>
<path d="M0 0 C0.99 0.33 1.98 0.66 3 1 C1.30610638 3.31316656 -0.02005597 4.83186747 -2.92382812 5.33007812 C-5.21029088 5.3934207 -7.46483482 5.34853117 -9.75 5.25 C-10.93916016 5.22292969 -10.93916016 5.22292969 -12.15234375 5.1953125 C-14.10208348 5.14833082 -16.05119878 5.07659044 -18 5 C-18 4.67 -18 4.34 -18 4 C-17.11957031 3.96261719 -16.23914063 3.92523438 -15.33203125 3.88671875 C-13.58986328 3.78810547 -13.58986328 3.78810547 -11.8125 3.6875 C-10.66394531 3.62949219 -9.51539063 3.57148437 -8.33203125 3.51171875 C-4.83028044 2.97393521 -2.968872 1.83054802 0 0 Z " fill="#C5545B" transform="translate(328,41)"/>
<path d="M0 0 C-1 2 -1 2 -3.72265625 3.0703125 C-4.82480469 3.41835938 -5.92695312 3.76640625 -7.0625 4.125 C-8.16722656 4.47820313 -9.27195312 4.83140625 -10.41015625 5.1953125 C-11.26480469 5.46085937 -12.11945312 5.72640625 -13 6 C-13.66 5.34 -14.32 4.68 -15 4 C-9.96174932 0.68914955 -5.9781891 -0.1708054 0 0 Z " fill="#5A6C9C" transform="translate(43,27)"/>
<path d="M0 0 C2.00841268 0.01421885 4.01537247 0.13420475 6.01953125 0.265625 C5.35953125 1.585625 4.69953125 2.905625 4.01953125 4.265625 C1.04953125 4.265625 -1.92046875 4.265625 -4.98046875 4.265625 C-3.72152968 1.74774686 -2.88459378 0.38688832 0 0 Z " fill="#D64F5B" transform="translate(313.98046875,49.734375)"/>
<path d="M0 0 C-0.33 1.65 -0.66 3.3 -1 5 C-1.66 4.01 -2.32 3.02 -3 2 C-5.31 4.64 -7.62 7.28 -10 10 C-10 5.70091749 -8.2851319 3.62932713 -6 0 C-3.50907189 -1.24546405 -2.58919267 -0.7767578 0 0 Z " fill="#C53952" transform="translate(384,42)"/>
<path d="M0 0 C-0.99 0.495 -0.99 0.495 -2 1 C-2.65213292 3.02463255 -2.65213292 3.02463255 -3 5 C-3.66 5 -4.32 5 -5 5 C-5 4.34 -5 3.68 -5 3 C-7.97 3 -10.94 3 -14 3 C-14 2.34 -14 1.68 -14 1 C-4.58997722 -0.14806378 -4.58997722 -0.14806378 0 0 Z " fill="#5B6787" transform="translate(198,33)"/>
<path d="M0 0 C0 3.15081975 -0.27898465 4.41847698 -2 7 C-5.17546695 8.42348518 -7.69978999 7.8250525 -11 7 C-7.53258866 4.04250209 -4.13126473 1.92151848 0 0 Z " fill="#CB435A" transform="translate(350,22)"/>
<path d="M0 0 C-0.58007812 0.25394531 -1.16015625 0.50789063 -1.7578125 0.76953125 C-6.23122698 2.7404911 -10.64844022 4.76843088 -15 7 C-14.9375 5.1875 -14.9375 5.1875 -14 3 C-4.93617021 -1.53191489 -4.93617021 -1.53191489 0 0 Z " fill="#586C9B" transform="translate(28,33)"/>
<path d="M0 0 C1.32 0 2.64 0 4 0 C4 1.98 4 3.96 4 6 C2.02 6 0.04 6 -2 6 C-1.125 1.125 -1.125 1.125 0 0 Z " fill="#273B68" transform="translate(240,35)"/>
<path d="M0 0 C3.63 0 7.26 0 11 0 C8 3 8 3 5.73828125 3.29296875 C4.93777344 3.25816406 4.13726562 3.22335938 3.3125 3.1875 C2.10013672 3.14689453 2.10013672 3.14689453 0.86328125 3.10546875 C-0.05904297 3.05326172 -0.05904297 3.05326172 -1 3 C-0.67 2.01 -0.34 1.02 0 0 Z " fill="#CF3A4D" transform="translate(350,41)"/>
<path d="M0 0 C2.97 0 5.94 0 9 0 C8.67 1.65 8.34 3.3 8 5 C6.35 4.67 4.7 4.34 3 4 C3 3.01 3 2.02 3 1 C2.01 0.67 1.02 0.34 0 0 Z " fill="#384564" transform="translate(245,44)"/>
<path d="M0 0 C0.66 0.99 1.32 1.98 2 3 C1.34 3 0.68 3 0 3 C0 3.66 0 4.32 0 5 C-1.58086048 5.36504603 -3.16483907 5.71660506 -4.75 6.0625 C-5.63171875 6.25972656 -6.5134375 6.45695312 -7.421875 6.66015625 C-9.98679028 6.99825872 -11.57091639 6.81158635 -14 6 C-10.12315913 4.80712589 -7.08378077 4 -3 4 C-3 3.01 -3 2.02 -3 1 C-2.01 0.67 -1.02 0.34 0 0 Z " fill="#A4575E" transform="translate(331,30)"/>
<path d="M0 0 C0.99 0.33 1.98 0.66 3 1 C2.34 1 1.68 1 1 1 C0.690625 1.78375 0.38125 2.5675 0.0625 3.375 C-1 6 -1 6 -2 8 C-4.31 8 -6.62 8 -9 8 C-9 7.34 -9 6.68 -9 6 C-7.02 6 -5.04 6 -3 6 C-2.690625 5.195625 -2.38125 4.39125 -2.0625 3.5625 C-1 1 -1 1 0 0 Z " fill="#745056" transform="translate(379,52)"/>
<path d="M0 0 C0.66 0.33 1.32 0.66 2 1 C1.1875 3.4375 1.1875 3.4375 0 6 C-0.99 6.33 -1.98 6.66 -3 7 C-4.20882096 9.00016466 -4.20882096 9.00016466 -5 11 C-5.218934 7.16865501 -4.80266269 4.41557141 -3 1 C-2.01 0.67 -1.02 0.34 0 0 Z " fill="#586C98" transform="translate(218,37)"/>
<path d="M0 0 C0 2.31 0 4.62 0 7 C-0.99 6.34 -1.98 5.68 -3 5 C-5.15274948 5.30840599 -5.15274948 5.30840599 -7 6 C-7.33 5.34 -7.66 4.68 -8 4 C-1.125 0 -1.125 0 0 0 Z " fill="#516186" transform="translate(72,16)"/>
<path d="M0 0 C6.6 0 13.2 0 20 0 C20 1.32 20 2.64 20 4 C19.34 4 18.68 4 18 4 C18 3.34 18 2.68 18 2 C12.06 1.67 6.12 1.34 0 1 C0 0.67 0 0.34 0 0 Z " fill="#AD515E" transform="translate(354,40)"/>
<path d="M0 0 C-0.33 0.66 -0.66 1.32 -1 2 C-4.01490557 3.00496852 -6.04181692 3.10335303 -9.1875 3.0625 C-10.53908203 3.04896484 -10.53908203 3.04896484 -11.91796875 3.03515625 C-12.60503906 3.02355469 -13.29210937 3.01195312 -14 3 C-9.25294723 -0.16470185 -5.68228705 -0.10927475 0 0 Z " fill="#234179" transform="translate(174,38)"/>
<path d="M0 0 C2.97 0 5.94 0 9 0 C8.67 3.63 8.34 7.26 8 11 C7.67 11 7.34 11 7 11 C6.67 7.7 6.34 4.4 6 1 C4.02 1 2.04 1 0 1 C0 0.67 0 0.34 0 0 Z " fill="#404C68" transform="translate(168,37)"/>
<path d="M0 0 C1.52519276 0.08937803 3.04681929 0.24537146 4.5625 0.4375 C5.80193359 0.59025391 5.80193359 0.59025391 7.06640625 0.74609375 C7.70449219 0.82988281 8.34257812 0.91367187 9 1 C6.45215202 2.37064273 4.72758854 3.04273121 1.8125 3.5 C0.4203125 3.7475 0.4203125 3.7475 -1 4 C-1.33 4.66 -1.66 5.32 -2 6 C-1.125 1.125 -1.125 1.125 0 0 Z " fill="#6878A2" transform="translate(150,36)"/>
<path d="M0 0 C-0.33 3.63 -0.66 7.26 -1 11 C-1.33 11 -1.66 11 -2 11 C-2 9.02 -2 7.04 -2 5 C-3.32 4.67 -4.64 4.34 -6 4 C-3.33333333 0 -3.33333333 0 0 0 Z " fill="#455774" transform="translate(71,22)"/>
<path d="M0 0 C0.66 0 1.32 0 2 0 C1.67 2.31 1.34 4.62 1 7 C-0.32 7 -1.64 7 -3 7 C-3.33 7.66 -3.66 8.32 -4 9 C-4 7.68 -4 6.36 -4 5 C-3.34 5 -2.68 5 -2 5 C-1.34 3.35 -0.68 1.7 0 0 Z " fill="#526998" transform="translate(83,37)"/>
<path d="M0 0 C0 0.33 0 0.66 0 1 C2.97 1.495 2.97 1.495 6 2 C6 2.33 6 2.66 6 3 C0.03654233 4.0006709 -4.28728907 4.0662997 -10 2 C-10 1.67 -10 1.34 -10 1 C-6.59437148 0.22157062 -3.49234244 -0.09978121 0 0 Z " fill="#B7606D" transform="translate(283,20)"/>
<path d="M0 0 C0.66 0.33 1.32 0.66 2 1 C1.2575 2.11375 1.2575 2.11375 0.5 3.25 C-1.31923475 6.06318188 -1.31923475 6.06318188 -1 10 C-2.65 10.33 -4.3 10.66 -6 11 C-4.54955729 6.89041233 -2.48889248 3.56741255 0 0 Z " fill="#D3646B" transform="translate(309,12)"/>
<path d="M0 0 C-0.33 1.32 -0.66 2.64 -1 4 C-3.66666667 4.66666667 -6.33333333 5.33333333 -9 6 C-6.97377245 1.32409027 -5.29661848 0 0 0 Z " fill="#667598" transform="translate(73,14)"/>
<path d="M0 0 C0.33 0.99 0.66 1.98 1 3 C1.99 2.67 2.98 2.34 4 2 C4 3.32 4 4.64 4 6 C1.69 6.33 -0.62 6.66 -3 7 C-1.125 1.125 -1.125 1.125 0 0 Z " fill="#C63E57" transform="translate(372,52)"/>
<path d="M0 0 C0.66 0 1.32 0 2 0 C2 0.99 2 1.98 2 3 C-1.3171411 4.4216319 -4.44219804 5.39009109 -8 6 C-8 5.01 -8 4.02 -8 3 C-6.865625 2.690625 -5.73125 2.38125 -4.5625 2.0625 C-1.21224901 1.37075469 -1.21224901 1.37075469 0 0 Z " fill="#294C83" transform="translate(20,41)"/>
<path d="M0 0 C0.33 0 0.66 0 1 0 C1 1.65 1 3.3 1 5 C-2.465 6.485 -2.465 6.485 -6 8 C-5.67 6.35 -5.34 4.7 -5 3 C-3.35 3 -1.7 3 0 3 C0 2.01 0 1.02 0 0 Z " fill="#2C4576" transform="translate(120,40)"/>
<path d="M0 0 C-2 3 -2 3 -5.4375 3.6875 C-9 4 -9 4 -12 4 C-7.81413519 0.81076967 -5.29441695 -0.50423019 0 0 Z " fill="#808BB1" transform="translate(164,31)"/>
<path d="M0 0 C2.64 0 5.28 0 8 0 C5.11912454 2.40072955 2.43595166 4.47291037 -1 6 C-0.67 4.02 -0.34 2.04 0 0 Z " fill="#ADB3CB" transform="translate(150,31)"/>
<path d="M0 0 C-3.32851768 3.01343955 -5.81882813 3.44667544 -10.25 3.6875 C-11.32765625 3.75324219 -12.4053125 3.81898437 -13.515625 3.88671875 C-14.74539062 3.94279297 -14.74539062 3.94279297 -16 4 C-16 3.67 -16 3.34 -16 3 C-13.71068726 2.30364247 -11.4191243 1.61765623 -9.125 0.9375 C-8.47402344 0.73833984 -7.82304688 0.53917969 -7.15234375 0.33398438 C-2.2265625 -1.11328125 -2.2265625 -1.11328125 0 0 Z " fill="#345288" transform="translate(51,31)"/>
<path d="M0 0 C0.33 0.66 0.66 1.32 1 2 C2.65 2 4.3 2 6 2 C6.33 1.34 6.66 0.68 7 0 C8.65 0.33 10.3 0.66 12 1 C11.67 1.66 11.34 2.32 11 3 C6.71 3 2.42 3 -2 3 C-1.34 2.67 -0.68 2.34 0 2 C0 1.34 0 0.68 0 0 Z " fill="#DCA3AA" transform="translate(249,39)"/>
<path d="M0 0 C2.97 0 5.94 0 9 0 C6.6870518 2.3129482 5.52095125 2.49580975 2.375 3.125 C1.55773437 3.29257812 0.74046875 3.46015625 -0.1015625 3.6328125 C-1.04128906 3.81457031 -1.04128906 3.81457031 -2 4 C-2 3.34 -2 2.68 -2 2 C-1.34 2 -0.68 2 0 2 C0 1.34 0 0.68 0 0 Z " fill="#9AA2BF" transform="translate(185,31)"/>
<path d="M0 0 C0.33 0.99 0.66 1.98 1 3 C0.01 4.485 0.01 4.485 -1 6 C-3.625 6.1875 -3.625 6.1875 -6 6 C-2.25 1.125 -2.25 1.125 0 0 Z " fill="#C52C46" transform="translate(328,52)"/>
<path d="M0 0 C-1 2 -1 2 -4 4 C-6.6875 4.125 -6.6875 4.125 -9 4 C-8.67 3.01 -8.34 2.02 -8 1 C-5.07175348 0.02391783 -3.04386724 -0.08226668 0 0 Z " fill="#B62B44" transform="translate(280,49)"/>
<path d="M0 0 C1.98 0 3.96 0 6 0 C5.67 1.32 5.34 2.64 5 4 C3.35 4 1.7 4 0 4 C0 2.68 0 1.36 0 0 Z " fill="#515F84" transform="translate(250,37)"/>
<path d="M0 0 C-2.39763185 2.39763185 -3.33273498 2.34280586 -6.625 2.625 C-7.44226563 2.69976562 -8.25953125 2.77453125 -9.1015625 2.8515625 C-9.72804688 2.90054688 -10.35453125 2.94953125 -11 3 C-7.65817252 -1.0165182 -4.96805907 -0.24433077 0 0 Z " fill="#838EB3" transform="translate(97,31)"/>
<path d="M0 0 C-4.87793583 3.25195722 -9.22391379 3.11325659 -15 3 C-15 2.67 -15 2.34 -15 2 C-14.37351562 1.86722656 -13.74703125 1.73445313 -13.1015625 1.59765625 C-12.28429687 1.42105469 -11.46703125 1.24445312 -10.625 1.0625 C-9.81289062 0.88847656 -9.00078125 0.71445312 -8.1640625 0.53515625 C-2.71108179 -0.81332454 -2.71108179 -0.81332454 0 0 Z " fill="#5D6D97" transform="translate(101,32)"/>
<path d="M0 0 C0.33 0.99 0.66 1.98 1 3 C0 4 0 4 -2.50390625 4.09765625 C-4.01791016 4.08025391 -4.01791016 4.08025391 -5.5625 4.0625 C-6.57441406 4.05347656 -7.58632812 4.04445313 -8.62890625 4.03515625 C-9.41136719 4.02355469 -10.19382813 4.01195312 -11 4 C-11 3.67 -11 3.34 -11 3 C-10.28972656 2.86722656 -9.57945312 2.73445313 -8.84765625 2.59765625 C-7.92855469 2.42105469 -7.00945312 2.24445312 -6.0625 2.0625 C-4.68771484 1.80146484 -4.68771484 1.80146484 -3.28515625 1.53515625 C-1.04710156 1.22285012 -1.04710156 1.22285012 0 0 Z " fill="#39465F" transform="translate(211,32)"/>
<path d="M0 0 C2.31 0 4.62 0 7 0 C5 3 5 3 2.375 3.6875 C1.199375 3.8421875 1.199375 3.8421875 0 4 C0 2.68 0 1.36 0 0 Z " fill="#385282" transform="translate(147,44)"/>
<path d="M0 0 C1.36125 0.12375 1.36125 0.12375 2.75 0.25 C-1.55769231 4.18846154 -1.55769231 4.18846154 -5.0625 4.5 C-5.784375 4.4175 -6.50625 4.335 -7.25 4.25 C-4.83923194 1.28290085 -3.90322061 0.30024774 0 0 Z " fill="#E06E73" transform="translate(318.25,40.75)"/>
<path d="M0 0 C2.31 0.33 4.62 0.66 7 1 C3.5647952 3.29013653 2.014669 3.17842973 -2 3 C-1.34 2.01 -0.68 1.02 0 0 Z " fill="#596C9B" transform="translate(164,31)"/>
<path d="M0 0 C1 4 1 4 0 6 C-0.66 6 -1.32 6 -2 6 C-2.33 6.99 -2.66 7.98 -3 9 C-3.66 8.67 -4.32 8.34 -5 8 C-3.35 5.36 -1.7 2.72 0 0 Z " fill="#EFB9B9" transform="translate(297,28)"/>
<path d="M0 0 C-3.20380017 2.13586678 -4.01939967 2.23132175 -7.6875 2.125 C-8.89986328 2.09792969 -8.89986328 2.09792969 -10.13671875 2.0703125 C-11.05904297 2.03550781 -11.05904297 2.03550781 -12 2 C-7.66032699 -0.21504143 -4.80574417 -1.54470348 0 0 Z " fill="#CC6172" transform="translate(267,24)"/>
<path d="M0 0 C1.98 0 3.96 0 6 0 C5.67 1.32 5.34 2.64 5 4 C2.525 3.01 2.525 3.01 0 2 C0 1.34 0 0.68 0 0 Z " fill="#3B4875" transform="translate(267,44)"/>
<path d="M0 0 C0 1.32 0 2.64 0 4 C-1.65 4 -3.3 4 -5 4 C-5 3.01 -5 2.02 -5 1 C-3 0 -3 0 0 0 Z " fill="#283E69" transform="translate(278,35)"/>
<path d="M0 0 C2.31 0 4.62 0 7 0 C4.60490662 2.89932357 2.68754757 3.50168276 -1 4 C-0.67 2.68 -0.34 1.36 0 0 Z " fill="#B3B9CF" transform="translate(82,31)"/>
<path d="M0 0 C2.64 0 5.28 0 8 0 C5.23776722 2.76223278 2.79293383 2.57856291 -1 3 C-0.67 2.01 -0.34 1.02 0 0 Z " fill="#B7BCD0" transform="translate(216,31)"/>
<path d="M0 0 C-2.76223278 2.76223278 -5.20706617 2.57856291 -9 3 C-9 2.34 -9 1.68 -9 1 C-5.57367167 -0.61798838 -3.61944899 -1.34053666 0 0 Z " fill="#7C89B0" transform="translate(26,28)"/>
<path d="M0 0 C-0.639375 0.309375 -1.27875 0.61875 -1.9375 0.9375 C-3.93610821 1.8345163 -3.93610821 1.8345163 -5 3 C-6.66617115 3.04063832 -8.33388095 3.042721 -10 3 C-7.29536552 -0.8183075 -4.37912428 -0.24787496 0 0 Z " fill="#C92C46" transform="translate(356,48)"/>
<path d="M0 0 C0.33 0.99 0.66 1.98 1 3 C2.65 3 4.3 3 6 3 C6 3.33 6 3.66 6 4 C3.36 4 0.72 4 -2 4 C-2.33 3.01 -2.66 2.02 -3 1 C-2.01 0.67 -1.02 0.34 0 0 Z " fill="#EBB3B4" transform="translate(237,39)"/>
<path d="M0 0 C1.32 0 2.64 0 4 0 C4 0.66 4 1.32 4 2 C2.35 2.33 0.7 2.66 -1 3 C-1.33 4.32 -1.66 5.64 -2 7 C-2.125 4.625 -2.125 4.625 -2 2 C-1.34 1.34 -0.68 0.68 0 0 Z " fill="#7C88AD" transform="translate(216,35)"/>
<path d="M0 0 C-1 2 -1 2 -4.0625 3.125 C-5.031875 3.41375 -6.00125 3.7025 -7 4 C-6.6875 2.0625 -6.6875 2.0625 -6 0 C-3 -1 -3 -1 0 0 Z " fill="#909BBA" transform="translate(122,34)"/>
</svg>
